<svg width="14" height="14" id="icon-hit" viewBox="0 0 60 60" xmlns="http://www.w3.org/2000/svg">
			<path d="M24.29 3.009c2.774-4.012 8.646-4.012 11.419 0 1.681 2.43 4.685 3.537 7.516 2.768 4.674-1.269 9.171 2.549 8.748 7.427-.257 2.955 1.342 5.756 3.999 7.008 4.386 2.067 5.406 7.918 1.983 11.378-2.074 2.096-2.629 5.282-1.389 7.969 2.047 4.437-.889 9.581-5.71 10.006-2.92.257-5.37 2.336-6.127 5.202-1.251 4.73-6.768 6.761-10.731 3.952-2.401-1.702-5.598-1.702-7.998 0-3.963 2.81-9.48.778-10.731-3.952-.758-2.865-3.207-4.944-6.127-5.202-4.821-.425-7.757-5.569-5.71-10.006 1.24-2.688.685-5.873-1.389-7.969-3.423-3.461-2.404-9.311 1.983-11.378 2.657-1.253 4.256-4.054 3.999-7.008-.424-4.877 4.074-8.696 8.748-7.427 2.831.769 5.835-.337 7.516-2.768z" fill="#FF9F2E" ></path>
		</svg>