<?xml version="1.0" standalone="no"?>
<!DOCTYPE svg PUBLIC "-//W3C//DTD SVG 20010904//EN"
 "http://www.w3.org/TR/2001/REC-SVG-20010904/DTD/svg10.dtd">
<svg version="1.0" xmlns="http://www.w3.org/2000/svg"
 width="128.000000pt" height="128.000000pt" viewBox="0 0 128.000000 128.000000"
 preserveAspectRatio="xMidYMid meet">

<g transform="translate(0.000000,128.000000) scale(0.100000,-0.100000)"
fill="#7367f0" stroke="#7367f0">
<path d="M247 1152 l-97 -97 0 -438 0 -437 34 0 c33 0 35 -2 38 -37 l3 -38
328 0 c211 0 327 4 327 10 0 6 -113 11 -315 13 l-315 2 0 25 0 25 280 0 c180
0 280 4 280 10 0 6 -113 10 -320 10 l-320 0 0 415 0 414 98 3 97 3 3 98 3 97
279 0 280 0 0 -424 c0 -273 4 -427 10 -431 7 -4 10 127 10 384 l0 391 30 0 30
0 0 -427 c0 -288 3 -424 10 -417 7 7 9 160 8 440 l-3 429 -37 3 c-36 3 -38 5
-38 38 l0 34 -303 0 -302 0 -98 -98z m93 -22 l0 -70 -72 0 -72 0 69 70 c38 39
71 70 72 70 2 0 3 -31 3 -70z"/>
<path d="M457 1164 c-19 -19 21 -24 194 -24 148 0 190 3 187 13 -4 9 -52 13
-189 15 -102 1 -188 -1 -192 -4z"/>
<path d="M455 1080 c-4 -7 62 -10 189 -10 124 0 196 4 196 10 0 14 -377 14
-385 0z"/>
<path d="M630 1000 c0 -6 42 -10 105 -10 63 0 105 4 105 10 0 6 -42 10 -105
10 -63 0 -105 -4 -105 -10z"/>
<path d="M630 920 c0 -6 42 -10 105 -10 63 0 105 4 105 10 0 6 -42 10 -105 10
-63 0 -105 -4 -105 -10z"/>
<path d="M547 839 c-57 -13 -108 -43 -148 -86 -62 -65 -74 -97 -74 -198 0
-106 17 -147 88 -213 63 -57 108 -75 193 -76 57 0 80 5 124 26 60 30 80 25 80
-20 0 -19 28 -53 108 -134 89 -88 114 -108 138 -108 47 0 74 25 74 68 0 34 -9
47 -108 145 -68 68 -115 107 -128 107 -42 0 -49 26 -23 82 35 75 34 183 -3
254 -60 116 -201 183 -321 153z m197 -53 c182 -106 173 -376 -16 -470 -98 -49
-226 -29 -306 47 -133 127 -95 354 72 434 72 34 182 29 250 -11z m106 -441 c7
-8 22 -15 33 -15 25 0 215 -185 224 -218 6 -26 -20 -62 -47 -62 -24 0 -230
213 -230 237 0 11 -7 26 -15 33 -12 10 -13 16 -4 26 15 18 24 18 39 -1z"/>
<path d="M547 757 c-90 -29 -147 -107 -147 -202 0 -189 222 -283 356 -150 76
77 85 187 22 277 -44 63 -155 99 -231 75z m130 -28 c62 -23 122 -109 123 -174
0 -16 -11 -53 -24 -82 -69 -146 -284 -139 -342 12 -33 87 4 193 83 234 42 22
116 27 160 10z"/>
<path d="M527 633 c-4 -4 8 -23 28 -43 l35 -36 -35 -34 c-19 -19 -35 -38 -35
-42 0 -17 26 -7 57 24 l33 32 35 -34 c45 -44 59 -30 15 15 l-34 35 32 33 c31
31 41 57 24 57 -4 0 -23 -16 -42 -35 l-34 -35 -36 35 c-20 20 -39 32 -43 28z"/>
</g>
</svg>
