<?xml version="1.0" standalone="no"?>
<!DOCTYPE svg PUBLIC "-//W3C//DTD SVG 20010904//EN"
 "http://www.w3.org/TR/2001/REC-SVG-20010904/DTD/svg10.dtd">
<svg version="1.0" xmlns="http://www.w3.org/2000/svg"
 width="452.000000pt" height="451.000000pt" viewBox="0 0 452.000000 451.000000"
 preserveAspectRatio="xMidYMid meet">

<g transform="translate(0.000000,451.000000) scale(0.100000,-0.100000)"
fill="#008054" stroke="none">
<path d="M2055 4489 c-607 -63 -1149 -354 -1527 -823 -457 -566 -610 -1316
-412 -2014 104 -369 283 -678 553 -956 631 -648 1588 -850 2434 -515 416 165
800 480 1045 859 396 612 470 1373 201 2053 -193 487 -568 902 -1044 1153
-371 195 -835 286 -1250 243z m546 -378 c216 -38 487 -142 666 -257 229 -146
451 -369 597 -597 114 -178 218 -446 258 -666 31 -167 31 -495 0 -662 -40
-220 -144 -488 -258 -666 -146 -228 -368 -451 -597 -597 -178 -114 -446 -218
-666 -258 -167 -31 -495 -31 -662 0 -220 40 -488 144 -666 258 -229 146 -451
369 -597 597 -114 178 -218 446 -258 666 -31 167 -31 495 0 662 40 220 144
488 258 666 146 229 369 451 597 597 219 140 507 241 787 275 120 15 408 6
541 -18z"/>
<path d="M1772 3340 c-46 -19 -92 -63 -117 -113 l-25 -51 0 -895 0 -896 24
-50 c76 -164 301 -174 393 -18 l28 48 3 890 c2 651 0 901 -9 932 -15 54 -72
121 -123 144 -44 20 -135 24 -174 9z"/>
<path d="M2655 3331 c-49 -22 -98 -76 -116 -128 -11 -31 -14 -205 -14 -933 0
-854 1 -897 19 -930 79 -149 258 -179 368 -63 61 64 58 18 58 1005 0 858 -1
905 -19 943 -50 108 -186 156 -296 106z"/>
</g>
</svg>
