<?xml version="1.0" standalone="no"?>
<!DOCTYPE svg PUBLIC "-//W3C//DTD SVG 20010904//EN"
 "http://www.w3.org/TR/2001/REC-SVG-20010904/DTD/svg10.dtd">
<svg version="1.0" xmlns="http://www.w3.org/2000/svg"
 width="451.000000pt" height="451.000000pt" viewBox="0 0 451.000000 451.000000"
 preserveAspectRatio="xMidYMid meet">

<g transform="translate(0.000000,451.000000) scale(0.100000,-0.100000)"
fill="#008054" stroke="none">
<path d="M2045 4479 c-602 -62 -1146 -354 -1520 -814 -516 -636 -646 -1486
-344 -2248 333 -841 1170 -1407 2079 -1407 432 0 875 133 1233 371 889 591
1239 1710 846 2702 -192 485 -571 904 -1041 1151 -375 198 -837 288 -1253 245z
m489 -384 c398 -60 748 -237 1037 -525 294 -294 473 -644 534 -1046 20 -130
20 -418 0 -548 -60 -400 -239 -751 -529 -1042 -292 -291 -641 -469 -1041 -529
-131 -20 -419 -20 -550 0 -400 60 -749 238 -1041 529 -291 292 -469 641 -529
1041 -20 131 -20 419 0 549 61 403 240 753 534 1046 287 285 637 463 1028 524
122 19 433 20 557 1z"/>
<path d="M1973 3028 c-17 -4 -43 -22 -57 -39 l-26 -31 0 -704 c0 -774 -2 -747
60 -779 47 -24 82 -18 141 23 80 57 783 566 866 629 83 61 103 101 79 157 -17
41 -8 33 -321 260 -148 108 -357 260 -464 337 -107 78 -206 145 -220 149 -14
4 -40 3 -58 -2z"/>
</g>
</svg>
