<svg width="14" height="14" id="icon-sale" viewBox="0 0 61 60" xmlns="http://www.w3.org/2000/svg">
			<path d="M29.607.502c.405-.67 1.382-.67 1.787 0l4.881 8.072c.279.462.869.634 1.355.395l8.499-4.17c.705-.346 1.527.179 1.503.96l-.287 9.412c-.017.538.386 1 .925 1.06l9.42 1.057c.781.088 1.187.971.742 1.614l-5.364 7.764c-.307.444-.219 1.048.201 1.388l7.349 5.948c.61.493.471 1.454-.254 1.757l-8.738 3.65c-.5.209-.755.764-.587 1.276l2.945 8.95c.244.742-.396 1.476-1.17 1.341l-9.338-1.622c-.534-.093-1.051.237-1.188.758l-2.394 9.111c-.199.756-1.136 1.029-1.714.5l-6.973-6.38c-.399-.365-1.013-.365-1.412 0l-6.973 6.38c-.578.529-1.516.256-1.714-.5l-2.394-9.111c-.137-.521-.654-.851-1.188-.758l-9.338 1.622c-.775.135-1.414-.599-1.17-1.341l2.945-8.95c.169-.512-.087-1.067-.587-1.276l-8.738-3.65c-.725-.303-.864-1.264-.254-1.757l7.349-5.948c.421-.34.508-.944.201-1.388l-5.364-7.764c-.445-.644-.039-1.527.742-1.614l9.42-1.057c.539-.06.941-.521.925-1.06l-.287-9.412c-.024-.781.798-1.305 1.503-.96l8.499 4.17c.486.239 1.076.067 1.355-.395l4.881-8.072z" fill="#ED1C28 "></path>
		</svg>