<?xml version="1.0" encoding="UTF-8"?> <svg xmlns="http://www.w3.org/2000/svg" viewBox="0 0 194.42 95.51"> <defs> <style>.cls-1{fill:#fff;}</style> </defs> <g id="Слой_2" data-name="Слой 2"> <g id="Слой_1-2" data-name="Слой 1"> <path class="cls-1" d="M21.55,9.35a5.84,5.84,0,0,0-2.66-1.74,10.13,10.13,0,0,0-3.18-.55,8.75,8.75,0,0,0-1.81.18,7.59,7.59,0,0,0-1.75.62A3.58,3.58,0,0,0,10.8,9a2.61,2.61,0,0,0-.52,1.66A2.73,2.73,0,0,0,11.52,13a11.85,11.85,0,0,0,3.13,1.42c1.26.39,2.61.78,4.06,1.18a17,17,0,0,1,4.05,1.66,9.42,9.42,0,0,1,3.14,2.88A8.54,8.54,0,0,1,27.14,25a10.65,10.65,0,0,1-1.14,5,10.11,10.11,0,0,1-3.08,3.57,13.14,13.14,0,0,1-4.5,2.1,20.59,20.59,0,0,1-5.4.69,20.78,20.78,0,0,1-6.62-1A16.67,16.67,0,0,1,.72,32.06l5.73-6a8.42,8.42,0,0,0,3.13,2.42,9.42,9.42,0,0,0,3.91.86,9.12,9.12,0,0,0,2-.22,6.51,6.51,0,0,0,1.8-.66,3.85,3.85,0,0,0,1.3-1.12,2.79,2.79,0,0,0,.49-1.62,2.85,2.85,0,0,0-1.27-2.47,12.32,12.32,0,0,0-3.17-1.55c-1.28-.42-2.66-.85-4.14-1.27a19.27,19.27,0,0,1-4.14-1.71,9.73,9.73,0,0,1-3.17-2.84,7.76,7.76,0,0,1-1.27-4.65A9.88,9.88,0,0,1,3.07,6.37,10.72,10.72,0,0,1,6.18,2.85,13.48,13.48,0,0,1,10.64.71,19.41,19.41,0,0,1,15.87,0a21.89,21.89,0,0,1,6,.83,14.11,14.11,0,0,1,5.21,2.8Z"></path> <path class="cls-1" d="M32.59.88h8.07V35.54H32.59Z"></path> <path class="cls-1" d="M48.88.88H62.53a34.87,34.87,0,0,1,4.77.33,13.37,13.37,0,0,1,4.32,1.26,8,8,0,0,1,3.1,2.67A7.79,7.79,0,0,1,75.91,9.7a7,7,0,0,1-1.72,4.86,9.7,9.7,0,0,1-4.58,2.77v.1a10.61,10.61,0,0,1,3.28.95,8.82,8.82,0,0,1,2.53,1.81,7.74,7.74,0,0,1,1.64,2.57,8.78,8.78,0,0,1,.56,3.13,8,8,0,0,1-1.24,4.58,9.6,9.6,0,0,1-3.21,3,14.43,14.43,0,0,1-4.42,1.62,24.58,24.58,0,0,1-4.89.49h-15Zm8,13.85h5.86a8.68,8.68,0,0,0,1.83-.19,5.34,5.34,0,0,0,1.63-.64A3.27,3.27,0,0,0,67.85,11a3,3,0,0,0-.49-1.78,3.29,3.29,0,0,0-1.27-1.1,6.54,6.54,0,0,0-1.75-.57,11.72,11.72,0,0,0-1.93-.17H56.93Zm0,14.34h7.25a8.65,8.65,0,0,0,1.88-.2,5,5,0,0,0,1.74-.67,4.52,4.52,0,0,0,1.27-1.27A3.65,3.65,0,0,0,69.56,25a3,3,0,0,0-.65-2,4,4,0,0,0-1.63-1.15,8.45,8.45,0,0,0-2.12-.53A14.66,14.66,0,0,0,63,21.2H56.93Z"></path> <path class="cls-1" d="M82.25.88h24.86V7.94H90.31v6.45h15.88v7.05H90.31v7H108v7.05H82.25Z"></path> <path class="cls-1" d="M112.74.88h14.17a26.37,26.37,0,0,1,5.29.52,12.93,12.93,0,0,1,4.41,1.71,8.77,8.77,0,0,1,3,3.23,10.45,10.45,0,0,1,1.11,5.07,9.79,9.79,0,0,1-2,6.24,9.12,9.12,0,0,1-5.89,3.24l9.31,14.65h-9.67l-7.65-13.85h-4V35.54h-8.06Zm8.06,14.34h4.76c.73,0,1.5,0,2.3-.07a7.41,7.41,0,0,0,2.2-.44,3.82,3.82,0,0,0,1.63-1.15,3.39,3.39,0,0,0,.65-2.21,3.51,3.51,0,0,0-.57-2.1,3.81,3.81,0,0,0-1.45-1.19,6.72,6.72,0,0,0-2-.57,16.9,16.9,0,0,0-2.22-.15H120.8Z"></path> <path class="cls-1" d="M145.26.88h8.06V35.51h-8.06Z"></path> <path class="cls-1" d="M171.82.88h6.68l15.92,34.66h-9.1l-3.15-7.34H168l-3,7.34H156ZM174.93,11l-4.45,10.77h8.94Z"></path> <path class="cls-1" d="M0,68.76A13.25,13.25,0,0,1,4.59,58.5a15.16,15.16,0,0,1,5-2.86,18.91,18.91,0,0,1,6.17-1,19,19,0,0,1,6.17,1,15.16,15.16,0,0,1,5,2.86A13.63,13.63,0,0,1,27,79a15,15,0,0,1-5,2.85,18.69,18.69,0,0,1-6.17,1,18.65,18.65,0,0,1-6.17-1,15,15,0,0,1-5-2.85A13.25,13.25,0,0,1,0,68.76Zm8.77,0a6.75,6.75,0,0,0,1.84,4.92,6.86,6.86,0,0,0,5.18,1.9A6.84,6.84,0,0,0,21,73.68a7.47,7.47,0,0,0,0-9.84A6.87,6.87,0,0,0,15.79,62a6.9,6.9,0,0,0-5.18,1.89A6.75,6.75,0,0,0,8.77,68.76Z"></path> <path class="cls-1" d="M35.27,55.31H44v4.32h.11a10.49,10.49,0,0,1,3.33-3.74,8.72,8.72,0,0,1,4.85-1.24c.51,0,1,0,1.52.05a8.18,8.18,0,0,1,1.41.22v7.59a13,13,0,0,0-1.83-.42A13.1,13.1,0,0,0,51.52,62a9.76,9.76,0,0,0-4,.67,5.21,5.21,0,0,0-2.26,1.85,6.63,6.63,0,0,0-1,2.86A27.13,27.13,0,0,0,44,71V82.21H35.27Z"></path> <path class="cls-1" d="M86.37,79.94q0,7.65-4.06,11.6c-2.7,2.65-6.83,4-12.36,4a35.36,35.36,0,0,1-7.49-.81,17.45,17.45,0,0,1-6.79-3.13l4.86-6.86a18.85,18.85,0,0,0,4.29,2.54,12.88,12.88,0,0,0,5,1c2.69,0,4.67-.63,5.94-1.87a6.32,6.32,0,0,0,1.89-4.72V79h-.12a8.21,8.21,0,0,1-3.78,2.73,12.67,12.67,0,0,1-4.22.81,15.48,15.48,0,0,1-5.74-1,12.57,12.57,0,0,1-7.24-7.28,15.1,15.1,0,0,1-1-5.59,15.46,15.46,0,0,1,.9-5.2A14.3,14.3,0,0,1,59,59,12.88,12.88,0,0,1,63,55.83a12.14,12.14,0,0,1,5.44-1.18A14.21,14.21,0,0,1,74.68,56a10.11,10.11,0,0,1,2.11,1.37,8.57,8.57,0,0,1,1.4,1.46h.12V55.31h8.06ZM64.27,68.6a6.33,6.33,0,0,0,2,4.61,7.28,7.28,0,0,0,2.22,1.47,7.08,7.08,0,0,0,5.52,0,7.23,7.23,0,0,0,2.26-1.47,6.34,6.34,0,0,0,1.49-2.1,6.11,6.11,0,0,0,.53-2.51,6.24,6.24,0,0,0-.53-2.53A6.4,6.4,0,0,0,76.29,64,7.41,7.41,0,0,0,74,62.51a7.08,7.08,0,0,0-5.52,0A7.47,7.47,0,0,0,66.29,64a6.12,6.12,0,0,0-1.49,2.09A6.24,6.24,0,0,0,64.27,68.6Z"></path> <path class="cls-1" d="M109.76,78.84h-.11a8.28,8.28,0,0,1-3.9,3.1,14.11,14.11,0,0,1-5.1.94,13.91,13.91,0,0,1-3.84-.53,9.69,9.69,0,0,1-3.24-1.58,7.37,7.37,0,0,1-3-6.19A7.43,7.43,0,0,1,93.89,68a12.44,12.44,0,0,1,3.53-1.63,26.54,26.54,0,0,1,4.13-.87c1.43-.18,2.85-.29,4.27-.33s2.74-.06,3.94-.06a4.22,4.22,0,0,0-1.66-3.51,6.27,6.27,0,0,0-3.95-1.3,8.83,8.83,0,0,0-3.94.86A10.9,10.9,0,0,0,97,63.5L92.34,59a16.26,16.26,0,0,1,5.73-3.24,21.82,21.82,0,0,1,6.79-1.07,18.62,18.62,0,0,1,6.34.91,9.27,9.27,0,0,1,4,2.68,10.19,10.19,0,0,1,2.07,4.35,27,27,0,0,1,.59,6V82.21h-8.08Zm-2.16-8.42c-.66,0-1.48,0-2.48.09a12.84,12.84,0,0,0-2.87.47,6.22,6.22,0,0,0-2.33,1.16,2.62,2.62,0,0,0-1,2.16,2.37,2.37,0,0,0,1.34,2.21,5.86,5.86,0,0,0,2.82.72,9.33,9.33,0,0,0,2.48-.33,7.72,7.72,0,0,0,2.14-.94,4.69,4.69,0,0,0,1.49-1.55,4.3,4.3,0,0,0,.55-2.22V70.42Z"></path> <path class="cls-1" d="M121.87,55.31h8.42V59h.11a7.42,7.42,0,0,1,1.17-1.55A8.92,8.92,0,0,1,133.39,56a10.47,10.47,0,0,1,2.4-1,10.11,10.11,0,0,1,2.92-.39,12.73,12.73,0,0,1,5.38,1,7.63,7.63,0,0,1,3.19,2.69,10.49,10.49,0,0,1,1.55,4,29.34,29.34,0,0,1,.4,5V82.21h-8.76V69c0-.78,0-1.58-.09-2.41a7.53,7.53,0,0,0-.52-2.29,4.11,4.11,0,0,0-1.35-1.72A4.37,4.37,0,0,0,135.9,62a5.57,5.57,0,0,0-2.74.58,4,4,0,0,0-1.61,1.55,6.29,6.29,0,0,0-.73,2.19,17.4,17.4,0,0,0-.18,2.55V82.21h-8.77Z"></path> <path class="cls-1" d="M153.39,45.83a4.52,4.52,0,0,1,1.49-3.41,5.3,5.3,0,0,1,7.2,0,4.62,4.62,0,0,1,0,6.8,5.27,5.27,0,0,1-7.2,0A4.5,4.5,0,0,1,153.39,45.83Zm.7,9.48h8.77v26.9h-8.77Z"></path> <path class="cls-1" d="M187,64a4.89,4.89,0,0,0-1.81-1.48,5.59,5.59,0,0,0-2.53-.58,6.9,6.9,0,0,0-5.17,1.89,7.5,7.5,0,0,0,0,9.84,6.87,6.87,0,0,0,5.17,1.9,5,5,0,0,0,2.53-.62A8.11,8.11,0,0,0,187,73.53l5.79,5.75a11.29,11.29,0,0,1-4.83,2.79,18.93,18.93,0,0,1-5.3.81,18.63,18.63,0,0,1-6.16-1,15,15,0,0,1-5-2.85,13.63,13.63,0,0,1,0-20.53,15.16,15.16,0,0,1,5-2.86,18.89,18.89,0,0,1,6.16-1,18.57,18.57,0,0,1,5.3.81,11.17,11.17,0,0,1,4.83,2.78Z"></path> </g> </g> </svg> 