<?xml version="1.0" encoding="UTF-8"?> <svg xmlns="http://www.w3.org/2000/svg" viewBox="0 0 399.85 448.09"> <defs> <style>.cls-1{fill:#00754a;}.cls-2{fill:#3dae2b;}</style> </defs> <g id="Слой_2" data-name="Слой 2"> <g id="Слой_1-2" data-name="Слой 1"> <path class="cls-1" d="M200,0V80.63l-.13-.08-42.8,24.66L120.33,84.78l15.86-28.4,38,21.12L180.62,66l-35.4-19.68,15.85-28.41,25.56,14.21V0Z"></path> <path class="cls-2" d="M213.26,0V32.09l25.56-14.21,15.85,28.41L219.28,66l6.43,11.53,38-21.12,15.85,28.4-36.75,20.43L200,80.55l-.12.08V0Z"></path> <polygon class="cls-2" points="399.85 124.16 386.74 100.98 358.81 116.79 358.59 87.55 326.06 87.73 326.36 128.24 313.15 128.31 312.82 84.84 280.31 85.03 280.61 127.07 323.15 152.18 323.15 152.2 323.1 152.23 323.15 152.26 323.15 152.32 323.2 152.29 323.22 152.3 322.84 201.69 358.72 223.61 375.63 195.83 338.53 173.16 345.4 161.88 379.96 183 396.88 155.21 371.92 139.96 399.85 124.16"></polygon> <polygon class="cls-1" points="119.24 127.07 119.55 85.03 87.03 84.84 86.7 128.31 73.49 128.24 73.79 87.73 41.26 87.55 41.04 116.79 13.11 100.98 0 124.16 27.93 139.96 2.98 155.21 19.89 183 54.45 161.88 61.32 173.16 24.23 195.83 41.14 223.61 77.01 201.69 76.63 152.3 76.65 152.29 76.7 152.32 76.7 152.26 76.75 152.23 76.7 152.2 76.7 152.18 119.24 127.07"></polygon> <path class="cls-1" d="M186.63,448.09V416l-25.56,14.21L145.22,401.8l35.4-19.69-6.44-11.52-38,21.11-15.86-28.39,36.74-20.44,42.8,24.66.13-.06v80.62Z"></path> <path class="cls-2" d="M199.89,448.09V367.47l.12.06,42.8-24.66,36.75,20.44L263.71,391.7l-38-21.11-6.43,11.52,35.39,19.69-15.85,28.41L213.26,416v32.09Z"></path> <polygon class="cls-2" points="399.85 323.83 371.92 308.03 396.88 292.78 379.96 264.99 345.4 286.11 338.53 274.83 375.63 252.16 358.72 224.38 322.84 246.29 323.22 295.69 323.2 295.7 323.15 295.67 323.15 295.73 323.1 295.76 323.15 295.79 323.15 295.81 280.61 320.92 280.31 362.95 312.82 363.14 313.15 319.68 326.36 319.75 326.06 360.25 358.59 360.44 358.81 331.2 386.74 347 399.85 323.83"></polygon> <polygon class="cls-1" points="119.24 320.92 76.7 295.81 76.7 295.79 76.75 295.76 76.7 295.73 76.7 295.67 76.65 295.7 76.63 295.69 77.01 246.29 41.14 224.38 24.23 252.16 61.32 274.83 54.45 286.11 19.89 264.99 2.98 292.78 27.93 308.03 0 323.83 13.11 347 41.04 331.2 41.26 360.44 73.79 360.25 73.49 319.75 86.7 319.68 87.03 363.14 119.55 362.95 119.24 320.92"></polygon> </g> </g> </svg> 