<?xml version="1.0" standalone="no"?>
<!DOCTYPE svg PUBLIC "-//W3C//DTD SVG 20010904//EN"
 "http://www.w3.org/TR/2001/REC-SVG-20010904/DTD/svg10.dtd">
<svg version="1.0" xmlns="http://www.w3.org/2000/svg"
 width="512.000000pt" height="512.000000pt" viewBox="0 0 512.000000 512.000000"
 preserveAspectRatio="xMidYMid meet">

<g transform="translate(0.000000,512.000000) scale(0.100000,-0.100000)">
<path d="M4725 5097 c-21 -17 -27 -32 -27 -61 0 -49 28 -78 82 -85 l40 -6
-403 -403 -403 -403 -62 20 c-74 25 -140 27 -213 5 l-54 -16 -43 48 c-24 27
-60 68 -79 92 l-36 43 24 47 c31 61 39 189 15 257 -33 98 -126 190 -220 217
-23 7 -72 12 -111 12 -128 0 -238 -71 -297 -192 -29 -59 -33 -76 -33 -147 1
-59 6 -92 22 -126 l21 -46 -407 -407 -406 -406 -55 21 c-68 26 -193 23 -253
-7 l-38 -18 -193 193 -194 194 20 45 c55 124 21 280 -83 379 -93 88 -247 112
-367 58 -72 -32 -143 -103 -174 -173 -29 -64 -35 -173 -13 -232 9 -25 17 -50
18 -56 1 -5 -171 -169 -383 -363 -212 -194 -393 -364 -402 -379 -23 -35 -23
-63 2 -95 24 -30 70 -43 98 -28 11 6 196 172 411 370 l391 358 61 -24 c78 -31
173 -33 250 -4 l54 21 191 -191 192 -192 -21 -46 c-31 -70 -29 -188 5 -262 33
-72 84 -128 147 -162 228 -125 501 38 501 298 0 41 -7 84 -20 117 l-20 53 406
406 407 407 42 -19 c68 -30 149 -34 221 -11 l61 19 80 -91 79 -91 -25 -55
c-22 -46 -26 -69 -26 -145 0 -78 4 -97 28 -147 35 -71 110 -140 183 -167 73
-28 175 -28 248 -1 165 62 254 257 196 429 l-21 65 403 403 403 403 6 -40 c7
-54 36 -82 85 -82 29 0 44 6 61 27 22 25 23 34 23 181 l0 156 -29 29 -29 29
-156 0 c-147 0 -156 -1 -181 -23z m-1395 -429 c50 -34 72 -71 78 -127 6 -63
-9 -101 -58 -145 -51 -46 -110 -56 -171 -28 -52 23 -72 44 -94 97 -20 46 -14
106 15 150 48 72 162 99 230 53z m-2138 -424 c55 -28 95 -108 85 -171 -15 -90
-90 -149 -182 -141 -63 5 -108 35 -135 88 -26 51 -25 96 3 150 45 89 139 119
229 74z m2722 -254 c74 -36 112 -126 87 -203 -16 -46 -80 -104 -125 -113 -61
-11 -106 4 -152 50 -67 67 -72 154 -11 223 56 64 127 79 201 43z m-1880 -594
c18 -8 45 -30 60 -49 51 -66 47 -154 -10 -216 -88 -99 -249 -60 -284 69 -37
136 101 252 234 196z"/>
<path d="M2097 2810 c-66 -12 -130 -52 -177 -111 -22 -28 -44 -57 -48 -65 -12
-22 -391 -68 -497 -60 -44 3 -180 23 -302 46 -123 22 -243 40 -268 40 -79 0
-157 -55 -189 -132 -14 -32 -16 -116 -16 -623 0 -575 0 -586 21 -630 12 -25
33 -55 48 -66 24 -20 26 -25 26 -113 0 -83 3 -97 33 -158 29 -59 59 -93 252
-277 259 -248 245 -240 615 -361 345 -113 414 -126 548 -99 l56 12 71 -66
c110 -102 209 -147 319 -147 59 0 563 123 664 162 43 16 106 49 140 72 100 67
322 242 352 278 51 60 86 149 93 239 l7 82 263 92 c144 51 272 99 285 108 37
25 78 70 101 112 20 39 21 51 24 505 3 514 3 514 -60 579 -65 66 -104 71 -379
45 -130 -12 -184 -13 -230 -5 -73 13 -153 48 -199 88 -44 37 -127 95 -305 214
-226 150 -289 182 -435 221 -67 17 -114 20 -420 23 -190 2 -366 0 -393 -5z
m773 -183 c71 -19 134 -44 190 -77 87 -51 366 -238 455 -305 110 -83 188 -121
291 -142 73 -15 95 -15 296 2 176 15 220 16 233 5 13 -11 15 -69 15 -446 l0
-434 -27 -30 c-23 -24 -75 -46 -287 -120 -143 -49 -261 -89 -262 -87 -1 1
-111 184 -244 407 -133 223 -256 420 -273 438 -75 78 -542 479 -585 502 -40
21 -64 25 -164 28 -104 4 -118 6 -118 22 0 70 -60 121 -116 100 -41 -16 -53
-39 -54 -102 l0 -58 -101 -80 c-92 -73 -105 -80 -146 -80 -36 0 -50 6 -74 29
-50 51 -43 87 52 237 105 169 124 192 162 203 52 16 690 6 757 -12z m-1815
-177 c280 -52 372 -57 543 -35 74 9 136 15 138 12 2 -2 -5 -24 -16 -48 -28
-63 -27 -159 4 -224 47 -99 138 -156 251 -156 85 0 126 19 254 120 l103 81
114 0 c76 0 126 -5 147 -14 18 -8 149 -117 291 -242 l260 -229 253 -425 c140
-233 258 -443 264 -465 15 -53 5 -119 -25 -170 -25 -41 -53 -71 -60 -64 -2 2
-115 181 -251 398 -135 217 -254 401 -263 408 -47 35 -132 -5 -132 -62 0 -36
-2 -32 269 -465 l241 -385 -32 -28 c-49 -43 -140 -103 -179 -120 l-35 -14
-184 304 c-102 168 -195 312 -208 321 -59 39 -138 -5 -130 -72 2 -18 79 -154
177 -314 95 -156 170 -286 168 -289 -3 -3 -55 -17 -116 -33 l-111 -28 -150
208 c-154 212 -182 240 -230 225 -34 -11 -60 -46 -60 -81 0 -34 13 -56 159
-255 50 -68 91 -128 91 -133 0 -13 -77 2 -121 25 -22 11 -273 246 -577 540
-295 287 -557 533 -582 548 -45 26 -48 26 -285 31 -132 3 -246 9 -252 13 -18
12 -19 1127 -1 1145 17 17 30 16 273 -28z m252 -1372 c127 -119 728 -702 731
-710 6 -14 -52 -8 -128 12 -164 45 -557 182 -596 208 -23 15 -129 113 -237
217 -210 205 -228 230 -213 309 l7 36 179 0 180 0 77 -72z"/>
</g>
</svg>
