<?xml version="1.0" standalone="no"?>
<!DOCTYPE svg PUBLIC "-//W3C//DTD SVG 20010904//EN"
 "http://www.w3.org/TR/2001/REC-SVG-20010904/DTD/svg10.dtd">
<svg version="1.0" xmlns="http://www.w3.org/2000/svg"
 width="1024.000000pt" height="1024.000000pt" viewBox="0 0 1024.000000 1024.000000"
 preserveAspectRatio="xMidYMid meet">
<g transform="translate(0.000000,1024.000000) scale(0.100000,-0.100000)">
<path d="M660 9915 c-295 -60 -527 -280 -607 -575 -17 -62 -18 -232 -18 -3220
0 -3033 1 -3158 18 -3220 65 -230 218 -415 422 -511 170 -80 20 -73 1698 -76
823 -2 1497 -7 1497 -11 0 -4 -68 -199 -152 -434 l-151 -426 -176 -5 c-199 -5
-250 -15 -377 -78 -135 -66 -248 -174 -327 -309 -14 -25 -40 -88 -58 -140 -32
-93 -33 -100 -37 -306 -5 -232 0 -255 55 -291 26 -17 165 -18 2688 -18 2523 0
2662 1 2688 18 55 36 59 59 54 291 -5 237 -13 280 -78 412 -74 151 -193 270
-344 344 -127 62 -178 72 -375 77 l-176 5 -152 426 c-84 235 -152 430 -152
434 0 4 672 9 1493 10 l1492 3 78 22 c269 77 472 282 554 558 17 57 18 224 21
3165 3 3406 7 3162 -57 3325 -42 108 -115 219 -201 306 -87 87 -162 138 -261
179 -156 65 218 60 -4606 59 -3606 -1 -4400 -3 -4453 -14z m8931 -242 c169
-58 306 -196 361 -362 19 -60 22 -93 26 -358 l4 -293 -4851 0 -4851 0 0 275
c0 160 5 296 11 327 33 158 150 306 300 378 46 22 109 44 139 49 32 5 1875 8
4425 7 l4370 -1 66 -22z m369 -3633 l0 -2380 -4840 0 -4840 0 0 2380 0 2380
4840 0 4840 0 0 -2380z m-2 -2837 c-4 -213 -6 -232 -29 -293 -65 -170 -189
-287 -364 -343 l-70 -22 -4390 0 -4390 0 -65 23 c-128 46 -229 125 -302 236
-68 106 -80 161 -86 409 l-4 217 4852 0 4852 0 -4 -227z m-3585 -1065 c42
-106 119 -301 170 -433 l95 -240 -759 -3 c-418 -1 -1101 -1 -1518 0 l-759 3
139 390 c76 215 146 409 155 433 l16 42 1193 0 1193 0 75 -192z m846 -930
c100 -31 164 -70 237 -142 113 -114 163 -243 164 -423 l0 -83 -2500 0 -2500 0
0 78 c0 112 16 186 60 277 79 165 240 282 420 305 30 4 957 7 2060 6 1840 -1
2009 -3 2059 -18z"/>
<path d="M958 9497 c-134 -51 -213 -142 -237 -273 -26 -145 49 -290 186 -360
51 -26 68 -29 148 -29 78 0 97 4 146 28 136 66 217 224 189 365 -23 113 -94
203 -198 253 -59 28 -179 36 -234 16z m175 -257 c30 -33 36 -80 16 -124 -12
-25 -63 -56 -94 -56 -31 0 -82 31 -94 56 -26 58 -1 132 53 155 37 15 89 2 119
-31z"/>
<path d="M1753 9496 c-152 -50 -243 -172 -243 -326 0 -98 29 -171 94 -235 78
-77 132 -100 241 -100 108 0 159 19 233 89 138 129 144 337 13 478 -81 89
-229 130 -338 94z m130 -225 c63 -24 89 -108 52 -165 -37 -56 -124 -58 -169
-5 -72 85 15 209 117 170z"/>
<path d="M2533 9492 c-154 -55 -240 -183 -231 -345 6 -122 68 -217 180 -278
58 -32 69 -34 153 -34 78 0 97 4 147 28 82 40 152 120 178 204 24 79 25 122 4
193 -29 98 -102 182 -193 223 -65 29 -171 33 -238 9z m145 -223 c40 -14 65
-53 65 -100 0 -47 -22 -82 -62 -99 -69 -28 -151 23 -151 96 0 46 14 71 53 94
37 23 52 24 95 9z"/>
<path d="M4924 9280 c-40 -16 -64 -59 -64 -112 0 -43 4 -54 34 -84 l34 -34
2106 0 2106 0 30 28 c43 38 52 80 30 129 -10 22 -30 49 -45 61 l-28 22 -2091
-1 c-1150 0 -2101 -4 -2112 -9z"/>
<path d="M2685 8234 c-380 -85 -664 -381 -730 -763 -85 -481 180 -919 645
-1065 336 -106 709 -16 953 231 121 123 203 264 249 428 32 119 32 364 0 484
-89 328 -334 577 -662 672 -101 29 -351 36 -455 13z m348 -230 c40 -9 114 -36
166 -61 79 -38 108 -59 181 -131 97 -97 149 -179 187 -300 119 -374 -112 -785
-502 -893 -100 -28 -250 -30 -345 -5 -204 54 -379 196 -471 381 -58 119 -73
188 -73 335 0 110 4 135 28 205 68 200 234 371 426 441 126 45 278 56 403 28z"/>
<path d="M5283 7744 c-72 -36 -68 7 -71 -741 -2 -656 -2 -674 17 -712 11 -21
32 -49 47 -60 l27 -21 2129 0 2130 0 34 34 34 34 0 701 0 701 -34 38 -34 37
-2124 2 c-1919 2 -2126 1 -2155 -13z m4117 -759 l0 -535 -1970 0 -1970 0 0
535 0 535 1970 0 1970 0 0 -535z"/>
<path d="M5739 7317 c-57 -38 -59 -47 -59 -337 0 -245 2 -267 20 -297 34 -57
40 -58 335 -58 295 0 301 1 335 58 18 30 20 52 20 297 0 379 19 360 -363 360
-248 0 -255 -1 -288 -23z m421 -327 l0 -120 -115 0 -115 0 0 120 0 120 115 0
115 0 0 -120z"/>
<path d="M6833 7324 c-67 -33 -68 -39 -68 -339 0 -383 -22 -360 355 -360 380
0 360 -19 360 349 0 229 -1 250 -20 287 -39 76 -51 79 -340 79 -212 0 -260 -3
-287 -16z m397 -334 l0 -120 -115 0 -115 0 0 120 0 120 115 0 115 0 0 -120z"/>
<path d="M2145 6294 c-464 -78 -868 -378 -1079 -801 -50 -100 -95 -226 -122
-343 -15 -64 -18 -144 -21 -564 -5 -528 -5 -526 49 -571 l30 -25 1866 0 c1831
0 1868 0 1899 20 59 36 58 23 57 525 0 519 -5 567 -74 776 -125 378 -381 672
-740 850 -186 93 -415 149 -606 149 -136 0 -126 12 -346 -421 -101 -197 -185
-359 -188 -359 -3 0 -90 169 -195 376 -104 207 -199 382 -210 390 -25 18 -208
17 -320 -2z m427 -668 c223 -445 228 -454 263 -466 20 -7 50 -10 66 -6 70 14
81 30 311 490 l219 438 71 -7 c152 -14 350 -79 483 -157 341 -200 567 -542
615 -928 5 -46 10 -239 10 -427 l0 -343 -210 0 -209 0 -5 33 c-3 17 -22 167
-41 331 -38 321 -45 349 -99 375 -23 10 -37 11 -67 2 -37 -11 -89 -61 -89 -84
0 -7 18 -154 40 -327 22 -173 40 -318 40 -322 0 -5 -484 -8 -1075 -8 l-1075 0
0 28 c1 15 18 160 38 323 26 200 35 306 30 327 -21 79 -160 94 -198 22 -8 -15
-90 -643 -90 -691 0 -5 -91 -9 -221 -9 l-221 0 5 393 c4 355 7 401 26 492 79
360 312 667 634 835 144 75 355 136 482 139 l40 1 227 -454z"/>
<path d="M5272 5860 c-63 -39 -62 -22 -62 -747 0 -627 1 -660 20 -700 11 -25
33 -51 52 -63 33 -20 45 -20 2146 -20 1855 0 2117 2 2142 15 63 33 60 -9 60
753 0 760 2 735 -60 767 -26 13 -273 15 -2147 15 -2107 0 -2118 0 -2151 -20z
m4128 -745 l0 -535 -1970 0 -1970 0 0 535 0 535 1970 0 1970 0 0 -535z"/>
<path d="M5739 5443 c-57 -35 -59 -47 -59 -340 0 -248 2 -270 19 -297 36 -54
44 -55 334 -56 220 0 273 3 297 15 57 29 60 48 60 337 0 378 20 358 -362 358
-225 0 -267 -3 -289 -17z m421 -328 l0 -115 -115 0 -115 0 0 115 0 115 115 0
115 0 0 -115z"/>
<path d="M6823 5440 c-57 -34 -58 -40 -58 -337 0 -260 1 -273 21 -300 38 -51
48 -53 340 -53 374 0 354 -20 354 345 0 225 -2 249 -20 284 -11 22 -31 49 -46
60 -26 20 -38 21 -293 21 -246 0 -268 -2 -298 -20z m407 -325 l0 -115 -115 0
-115 0 0 115 0 115 115 0 115 0 0 -115z"/>
<path d="M5060 3329 c-107 -21 -201 -94 -251 -197 -19 -38 -24 -63 -24 -137 0
-80 3 -96 29 -148 83 -163 280 -237 438 -165 205 94 271 339 139 514 -78 104
-209 156 -331 133z m129 -255 c77 -64 32 -184 -69 -184 -45 0 -77 20 -95 57
-35 73 15 153 95 153 27 0 48 -8 69 -26z"/>
</g>
</svg>
