<svg width="6" height="8" viewBox="0 0 6 8" fill="#323232" xmlns="http://www.w3.org/2000/svg">
<path d="M0.928857 3.99142C0.930171 3.81229 0.999592 3.64078 1.12211 3.51311L4.34987 0.203226C4.51949 0.0285258 4.76725 -0.0401592 4.99963 0.02314C5.2321 0.0864387 5.4139 0.272096 5.47666 0.510092C5.53942 0.748187 5.47356 1.00244 5.30386 1.17724L2.55113 4L5.30386 6.82276C5.47347 6.99756 5.53933 7.25181 5.47656 7.48991C5.4138 7.72791 5.23198 7.91357 4.99963 7.97686C4.76716 8.04016 4.5195 7.97147 4.34978 7.79677L1.12202 4.48689V4.48679C0.995278 4.3549 0.925574 4.17637 0.92867 3.99117L0.928857 3.99142Z"/>
</svg>
