<svg width="8" height="6" viewBox="0 0 8 6" fill="#323232" xmlns="http://www.w3.org/2000/svg">
<path d="M4.00858 5.34358C4.18771 5.34223 4.35922 5.27104 4.48689 5.1454L7.79677 1.83552C7.97147 1.66159 8.04016 1.40753 7.97686 1.16923C7.91356 0.930851 7.7279 0.744416 7.48991 0.680066C7.25181 0.615708 6.99756 0.68324 6.82276 0.857265L4 3.68002L1.17724 0.857265C1.00244 0.683336 0.748187 0.615804 0.510092 0.680162C0.272093 0.74452 0.0864314 0.930964 0.0231397 1.16923C-0.0401593 1.40761 0.0285269 1.66158 0.203225 1.83562L3.51311 5.1455H3.51321C3.6451 5.27547 3.82363 5.34694 4.00883 5.34377L4.00858 5.34358Z"/>
</svg>
