<svg width="6" height="8" viewBox="0 0 6 8" fill="#323232" xmlns="http://www.w3.org/2000/svg">
<path d="M5.07114 3.99142C5.06983 3.81229 5.00041 3.64078 4.87789 3.51311L1.65013 0.203226C1.48051 0.0285258 1.23275 -0.0401592 1.00037 0.02314C0.767905 0.0864387 0.586096 0.272096 0.523342 0.510092C0.460581 0.748187 0.526438 1.00244 0.696145 1.17724L3.44887 4L0.696145 6.82276C0.526531 6.99756 0.460675 7.25181 0.523436 7.48991C0.586197 7.72791 0.768015 7.91357 1.00037 7.97686C1.23284 8.04016 1.4805 7.97147 1.65022 7.79677L4.87798 4.48689V4.48679C5.00472 4.3549 5.07443 4.17637 5.07133 3.99117L5.07114 3.99142Z"/>
</svg>
