<?xml version="1.0" encoding="utf-8"?>
<!-- Svg Vector Icons : http://www.onlinewebfonts.com/icon -->
<!DOCTYPE svg PUBLIC "-//W3C//DTD SVG 1.1//EN" "http://www.w3.org/Graphics/SVG/1.1/DTD/svg11.dtd">
<svg version="1.1" xmlns="http://www.w3.org/2000/svg" xmlns:xlink="http://www.w3.org/1999/xlink" x="0px" y="0px" viewBox="0 0 1000 1000" enable-background="new 0 0 1000 1000" xml:space="preserve">
<metadata> Svg Vector Icons : http://www.onlinewebfonts.com/icon </metadata>
<g><path d="M206,206h98v49h-98V206z"/><path d="M353,206h343v49H353V206z"/><path d="M206,304h98v49h-98V304z"/><path d="M353,304h196v49H353V304z"/><path d="M206,402h98v49h-98V402z"/><path d="M696,500c-107.8,0-196,88.2-196,196c0,107.8,88.2,196,196,196c107.8,0,196-88.2,196-196C892,588.2,803.8,500,696,500z M696,794c-53.9,0-98-44.1-98-98c0-53.9,44.1-98,98-98c53.9,0,98,44.1,98,98C794,749.9,749.9,794,696,794z"/><path d="M647,402h98v196h-98V402L647,402z"/><path d="M455.4,522.8l69.3-69.3l138.6,138.6L594,661.4L455.4,522.8L455.4,522.8z"/><path d="M402,647h196v98H402V647z"/><path d="M520.8,938.5l-69.3-69.3l138.6-138.6l69.3,69.3L520.8,938.5L520.8,938.5z"/><path d="M647,794h98v196h-98V794z"/><path d="M940.5,869.2l-69.3,69.3L732.6,799.9l69.3-69.3L940.5,869.2z"/><path d="M794,647h196v98H794V647z"/><path d="M867.3,453.5l69.3,69.3L798,661.3L728.7,592L867.3,453.5z"/><path d="M353,794H108V108h686v245h98V59c0-24.5-19.6-49-49-49H59c-29.4,0-49,24.5-49,49v784c0,24.5,19.6,49,49,49h294V794z"/></g>
</svg>