<svg width="14" height="14" viewBox="0 0 14 14" fill="none" xmlns="http://www.w3.org/2000/svg">
<g clip-path="url(#clip0_2760_34163)">
<path d="M0.000538349 9.18574C0.00195837 9.37935 0.0769944 9.56474 0.209424 9.70274L3.69825 13.2803C3.88159 13.4692 4.14939 13.5434 4.40056 13.475C4.65183 13.4066 4.84835 13.2059 4.91618 12.9486C4.98401 12.6913 4.91283 12.4165 4.7294 12.2275L1.75403 9.17646L4.7294 6.12539C4.91273 5.93646 4.98391 5.66164 4.91607 5.40429C4.84824 5.14704 4.65171 4.94636 4.40056 4.87795C4.14929 4.80953 3.8816 4.88377 3.69815 5.0726L0.209323 8.65019V8.6503C0.0723324 8.79286 -0.00300932 8.98583 0.000336647 9.18601L0.000538349 9.18574Z" fill="#323232"/>
<path d="M13.9995 9.18571C13.998 9.37932 13.923 9.56471 13.7906 9.70271L10.3017 13.2803C10.1184 13.4691 9.85061 13.5434 9.59944 13.475C9.34817 13.4065 9.15165 13.2059 9.08382 12.9486C9.01599 12.6913 9.08717 12.4164 9.2706 12.2275L12.246 9.17643L9.2706 6.12536C9.08727 5.93643 9.01609 5.66161 9.08393 5.40425C9.15176 5.14701 9.34829 4.94633 9.59944 4.87792C9.85071 4.8095 10.1184 4.88374 10.3018 5.07257L13.7907 8.65016V8.65027C13.9277 8.79282 14.003 8.9858 13.9997 9.18597L13.9995 9.18571Z" fill="#323232"/>
</g>
<defs>
<clipPath id="clip0_2760_34163">
<rect width="14" height="14" fill="white"/>
</clipPath>
</defs>
</svg>
