<?xml version="1.0" encoding="utf-8"?>
<!-- Svg Vector Icons : http://www.onlinewebfonts.com/icon -->
<!DOCTYPE svg PUBLIC "-//W3C//DTD SVG 1.1//EN" "http://www.w3.org/Graphics/SVG/1.1/DTD/svg11.dtd">
<svg version="1.1" xmlns="http://www.w3.org/2000/svg" xmlns:xlink="http://www.w3.org/1999/xlink" x="0px" y="0px" viewBox="0 0 1000 1000" enable-background="new 0 0 1000 1000" xml:space="preserve">
<g><g transform="translate(0.000000,511.000000) scale(0.100000,-0.100000)"><path d="M4360.6,4964c-127-62.4-156-142.6-247.3-666.2l-84.7-487.9l-265.1-91.4c-147.1-51.2-369.9-144.8-496.9-207.2l-231.7-118.1l-378.8,280.7c-405.5,300.8-443.4,323.1-572.6,323.1c-122.5,0-236.2-84.7-606-461.2c-374.3-376.5-414.4-447.8-352-617.2c17.8-49,156-262.9,305.2-474.6l271.8-381L1580,1811.3c-69.1-138.1-158.2-363.2-202.8-496.9l-78-247.3l-492.4-80.2C278.8,900,238.7,884.4,154,741.8c-40.1-69.1-44.6-122.5-51.2-599.3c-6.7-508-4.5-525.8,44.6-623.8c82.4-160.4,131.4-180.5,675.1-274c269.6-46.8,490.2-86.9,490.2-89.1c100.3-325.3,173.8-512.5,276.3-724.1l131.5-262.9l-287.4-398.8c-425.5-590.4-425.5-568.1,86.9-1087.3c205-207.2,398.8-389.9,432.3-407.7c33.4-17.9,109.2-31.2,169.3-31.2c106.9,0,129.2,13.4,528.1,291.9l416.7,294.1l260.7-127c142.6-69,358.7-158.2,481.3-198.3l222.8-75.8l80.2-467.9c42.3-258.4,91.4-501.3,109.2-539.2c15.6-40.1,66.8-98,111.4-127c78-53.5,102.5-55.7,559.2-69.1c262.9-6.7,523.6-6.7,581.5,2.2c115.8,17.8,222.8,91.3,274,191.6c15.6,31.2,66.8,267.4,109.2,523.6c44.6,256.2,84.7,467.9,89.1,474.6c6.7,4.5,129.2,46.8,274.1,95.8c144.8,49,365.4,138.1,490.2,200.5l229.5,113.6l389.9-282.9c213.9-153.8,421.1-291.9,461.2-303c40.1-11.2,113.6-15.6,162.6-6.7c78,11.2,135.9,60.2,485.7,407.8c421.1,416.6,459,474.6,430,632.8c-8.9,49-122.5,229.5-300.8,481.3l-282.9,405.5l124.8,249.6c69.1,138.1,160.4,360.9,205,494.6l82.4,245.1l472.3,80.2c269.6,46.8,505.8,98,548.1,120.3c40.1,22.3,95.8,78,124.8,120.3c46.8,75.7,49,106.9,55.7,603.8c6.7,510.2,4.5,525.8-44.6,623.8c-82.4,160.4-135.9,182.7-632.8,265.1c-245.1,42.3-463.4,82.4-487.9,91.4c-33.4,13.4-62.4,73.5-106.9,225c-35.7,115.8-122.5,336.4-198.3,490.2l-133.7,283l289.6,403.3c209.5,291.9,294.1,427.8,305.3,490.2c26.7,153.7-37.9,245.1-447.8,650.6c-329.8,327.5-387.7,374.3-465.7,385.4c-49,8.9-120.3,4.5-160.4-6.7c-37.9-11.1-238.4-140.4-445.6-285.2c-205-144.8-385.4-271.8-401-280.7c-13.4-8.9-75.7,13.4-138.1,49c-158.2,93.6-403.3,198.3-655,280.7c-118.1,40.1-222.8,78-229.5,84.7c-6.7,6.7-46.8,216.1-86.9,465.7c-82.4,501.3-93.6,543.6-169.3,610.5c-104.7,93.6-131.4,98-704.1,98C4523.2,4999.6,4420.7,4992.9,4360.6,4964z M5646.1,3130.3c1151.9-267.4,2034.2-1114,2326.1-2234.7c220.6-851.1,69.1-1737.9-427.8-2488.7c-156-236.2-503.5-599.3-733-764.2c-1007.1-726.3-2323.8-788.7-3382.2-162.6C2694-2085.6,2172.6-1359.2,1981-492.5c-53.5,240.6-66.8,824.4-24.5,1080.6c131.5,806.6,552.6,1508.4,1189.8,1989.6c425.5,320.8,918,519.1,1486.1,603.8C4803.9,3206,5461.2,3174.8,5646.1,3130.3z" fill="#7367F0"/><path d="M4086.5,2317c-147.1-62.4-249.5-120.3-276.3-156c-42.3-55.7-42.3-57.9,15.6-300.8l57.9-245.1l-189.4-191.6c-104.7-104.7-205-189.4-220.6-189.4s-122.5,20.1-233.9,46.8c-278.5,64.6-307.5,51.2-407.7-187.2c-176-421.1-178.2-410,111.4-599.4l218.3-140.4V95.7V-165l-207.2-127c-276.3-169.3-280.7-178.3-160.4-479c53.5-129.2,115.9-256.2,140.4-283c55.7-62.4,104.7-62.4,369.8,0l209.4,49l189.4-187.2l189.4-187.1l-40.1-191.6c-64.6-305.2-64.6-300.8-6.7-365.4c53.5-60.2,459-238.4,541.4-238.4c71.3,0,109.2,37.9,240.6,251.8l122.5,196.1l267.4,4.5l267.4,4.5l129.2-207.2c176-276.3,189.4-280.7,523.6-138.1c320.8,138.1,318.6,135.9,240.6,490.2l-49,211.7l182.7,184.9L6495-989.4l200.5-46.8c231.7-53.5,309.7-57.9,360.9-17.8c40.1,29,238.4,485.7,238.4,550.3c0,64.6-64.6,124.8-265.1,249.6L6844.8-136l-2.2,262.9V392L7052,527.9c133.7,89.1,216.1,158.2,229.5,193.8c13.4,44.6-4.5,109.2-86.9,307.5c-142.6,338.7-142.6,340.9-459,267.4l-245.1-57.9l-189.4,191.6l-191.6,189.4l46.8,202.8c53.5,225,55.7,287.4,24.5,347.6c-22.3,42.3-481.3,245.1-554.8,245.1c-66.8,0-127-62.4-251.8-262.9L5256.2,1965h-262.9h-262.9L4599,2165.5c-122.5,191.6-182.7,249.5-249.5,249.5C4333.8,2412.8,4215.7,2370.5,4086.5,2317z M5233.9,1245.3c483.5-102.5,826.6-470.1,904.6-969.2c91.4-599.3-358.7-1198.7-975.9-1290c-592.7-89.1-1163,316.4-1290,915.7c-89.1,418.9,95.8,893.4,445.6,1143c164.9,115.9,262.9,160.4,447.9,200.5C4944.3,1285.4,5046.8,1285.4,5233.9,1245.3z" fill="#7367F0"/></g></g>
</svg>