<svg width="15" height="12" viewBox="0 0 15 12" fill="none" xmlns="http://www.w3.org/2000/svg">
<path d="M13.7319 1.185C13.639 1.09128 13.5284 1.01688 13.4065 0.966113C13.2846 0.915344 13.1539 0.889206 13.0219 0.889206C12.8899 0.889206 12.7592 0.915344 12.6373 0.966113C12.5155 1.01688 12.4049 1.09128 12.3119 1.185L4.86192 8.645L1.73192 5.505C1.6354 5.41177 1.52146 5.33845 1.3966 5.28925C1.27175 5.24004 1.13843 5.21591 1.00424 5.21824C0.870064 5.22056 0.737655 5.24928 0.614576 5.30278C0.491498 5.35627 0.380161 5.43348 0.286922 5.53C0.193684 5.62653 0.12037 5.74047 0.0711659 5.86532C0.0219619 5.99018 -0.00216855 6.1235 0.000152918 6.25768C0.00247438 6.39186 0.0312022 6.52427 0.0846957 6.64735C0.138189 6.77043 0.215401 6.88177 0.311922 6.975L4.15192 10.815C4.24489 10.9087 4.35549 10.9831 4.47735 11.0339C4.59921 11.0847 4.72991 11.1108 4.86192 11.1108C4.99393 11.1108 5.12464 11.0847 5.2465 11.0339C5.36836 10.9831 5.47896 10.9087 5.57192 10.815L13.7319 2.655C13.8334 2.56136 13.9144 2.44771 13.9698 2.32121C14.0252 2.19471 14.0539 2.05811 14.0539 1.92C14.0539 1.7819 14.0252 1.6453 13.9698 1.5188C13.9144 1.3923 13.8334 1.27865 13.7319 1.185Z" fill="white"/>
</svg>
