<?xml version="1.0" standalone="no"?>
<!DOCTYPE svg PUBLIC "-//W3C//DTD SVG 20010904//EN"
 "http://www.w3.org/TR/2001/REC-SVG-20010904/DTD/svg10.dtd">
<svg version="1.0" xmlns="http://www.w3.org/2000/svg"
 width="512.000000pt" height="512.000000pt" viewBox="0 0 512.000000 512.000000"
 preserveAspectRatio="xMidYMid meet">

<g transform="translate(0.000000,512.000000) scale(0.100000,-0.100000)"
fill="#000000" stroke="none">
<path d="M2445 5111 c-36 -16 -55 -47 -103 -171 -26 -68 -54 -127 -62 -131 -8
-4 -40 -19 -71 -32 l-56 -25 -119 54 c-85 38 -132 54 -162 54 -41 0 -49 -5
-114 -67 -73 -71 -98 -107 -98 -143 0 -12 25 -76 55 -143 30 -67 55 -126 55
-131 0 -5 -12 -40 -27 -76 l-28 -67 -127 -48 c-172 -64 -178 -71 -178 -213 0
-162 -8 -155 255 -253 50 -18 52 -21 78 -88 15 -38 27 -71 27 -74 0 -4 -25
-63 -56 -133 -70 -157 -69 -170 19 -262 68 -70 102 -92 143 -92 15 0 84 25
152 56 l126 55 55 -24 c31 -14 62 -27 70 -29 8 -2 37 -64 65 -138 66 -173 69
-175 216 -175 147 0 150 2 216 175 28 74 57 136 65 138 8 2 39 15 70 29 l56
24 125 -55 c69 -31 138 -56 152 -56 41 0 75 22 143 92 88 92 89 105 19 262
-31 70 -56 129 -56 133 0 3 12 36 27 74 26 67 28 70 78 88 263 98 255 91 255
253 0 142 -6 149 -178 213 l-127 48 -28 67 c-15 36 -27 71 -27 76 0 5 25 64
55 131 30 67 55 131 55 143 0 36 -25 72 -98 143 -93 89 -102 90 -276 12 l-118
-53 -57 25 c-31 13 -63 28 -71 32 -8 4 -36 64 -62 132 -27 70 -59 134 -73 149
-24 23 -33 25 -133 27 -59 2 -116 -1 -127 -6z m205 -257 c48 -130 74 -167 128
-185 20 -7 64 -25 97 -41 33 -15 74 -28 91 -28 17 0 85 24 150 54 l119 55 33
-33 33 -32 -55 -126 c-31 -68 -56 -135 -56 -147 0 -12 11 -43 24 -69 13 -26
31 -70 40 -99 9 -28 28 -62 41 -75 12 -12 78 -43 144 -68 l122 -45 -3 -49 -3
-49 -113 -43 c-62 -23 -124 -49 -137 -58 -13 -8 -32 -39 -43 -68 -11 -29 -32
-78 -46 -108 -14 -30 -26 -66 -26 -79 0 -13 25 -80 57 -148 l56 -124 -28 -29
c-16 -17 -34 -30 -40 -30 -7 0 -52 19 -101 41 -143 66 -159 71 -202 55 -111
-42 -199 -80 -213 -93 -10 -8 -34 -60 -55 -116 -57 -156 -58 -157 -104 -157
-46 0 -47 1 -104 157 -21 56 -45 108 -55 116 -14 13 -102 51 -213 93 -43 16
-59 11 -202 -55 -49 -22 -94 -41 -101 -41 -6 0 -24 13 -40 30 l-28 29 56 124
c32 68 57 135 57 148 0 13 -12 49 -26 79 -14 30 -35 79 -46 108 -11 29 -30 60
-43 68 -13 9 -75 35 -137 58 l-113 43 -3 49 -3 49 122 45 c67 25 132 55 145
68 12 13 31 47 40 75 9 29 27 73 40 99 13 26 24 57 24 69 0 12 -25 79 -56 147
l-55 126 33 32 33 33 119 -55 c65 -30 133 -54 149 -54 17 0 60 13 96 29 36 16
81 35 99 41 50 19 75 57 122 184 l43 116 47 0 47 0 43 -116z"/>
<path d="M2453 4465 c-276 -60 -458 -350 -388 -618 47 -180 190 -327 360 -372
68 -17 189 -19 255 -4 138 32 273 141 335 270 99 211 63 423 -99 584 -80 79
-152 119 -254 141 -81 17 -128 17 -209 -1z m240 -165 c78 -29 149 -96 189
-178 30 -60 33 -75 33 -157 0 -79 -3 -97 -29 -149 -37 -76 -101 -140 -174
-174 -49 -23 -70 -27 -152 -27 -82 0 -103 4 -152 27 -73 34 -137 98 -174 174
-25 52 -29 70 -29 149 0 76 4 99 26 146 85 181 275 259 462 189z"/>
<path d="M455 4016 c-60 -28 -97 -66 -124 -126 -20 -44 -21 -61 -21 -903 l0
-858 25 -24 c31 -32 69 -32 100 0 l25 24 0 851 0 852 29 29 29 29 315 0 c303
0 315 1 341 21 33 26 36 79 6 109 -19 19 -33 20 -347 20 -324 0 -329 0 -378
-24z"/>
<path d="M3930 4020 c-30 -30 -27 -83 6 -109 26 -20 38 -21 346 -21 l320 0 29
-29 29 -29 0 -847 0 -846 25 -24 c31 -32 74 -33 103 -2 l22 23 0 855 c0 838
-1 855 -21 899 -27 60 -64 98 -124 126 -49 24 -54 24 -382 24 -320 0 -334 -1
-353 -20z"/>
<path d="M1590 2821 c-61 -22 -67 -28 -412 -398 -176 -189 -198 -216 -198
-246 0 -38 21 -62 62 -72 35 -9 52 8 338 315 127 136 242 252 256 259 31 14
47 14 77 0 23 -10 728 -758 735 -779 2 -6 -86 -105 -195 -222 l-198 -211 -5
114 c-7 135 -26 187 -97 249 -82 72 -53 70 -928 70 -897 0 -852 4 -940 -83
-89 -90 -85 -46 -85 -869 0 -691 1 -720 20 -770 26 -68 90 -133 158 -158 51
-19 79 -20 846 -20 906 0 852 -5 943 85 79 79 83 102 83 442 l0 283 510 0 510
0 0 -283 c0 -340 4 -363 83 -442 91 -90 37 -85 943 -85 767 0 795 1 846 20 68
25 132 90 158 158 19 49 20 78 20 456 0 393 -1 404 -21 430 -28 36 -80 36
-108 0 -20 -26 -21 -37 -21 -423 0 -375 -1 -398 -20 -428 -40 -66 2 -63 -857
-63 -754 0 -779 1 -810 20 -66 40 -63 7 -63 777 0 780 -3 749 70 785 32 17 92
18 808 18 853 0 812 3 852 -63 17 -27 20 -51 20 -165 0 -128 1 -134 25 -157
31 -32 69 -32 100 0 24 23 25 29 25 163 0 173 -12 216 -85 289 -77 76 -108 83
-381 83 l-223 0 -420 449 c-462 494 -453 486 -571 486 -105 -1 -116 -10 -511
-433 -199 -213 -365 -387 -369 -387 -4 0 -170 174 -369 387 -270 289 -372 392
-405 408 -64 31 -130 34 -196 11z m1909 -153 c18 -13 187 -189 377 -393 l344
-370 -472 -5 c-470 -5 -473 -5 -520 -28 -26 -13 -66 -44 -88 -69 -67 -76 -70
-99 -70 -495 l0 -348 -510 0 -510 0 1 143 0 142 664 710 c366 390 675 715 687
722 34 18 61 16 97 -9z m-1669 -936 c73 -36 70 -4 70 -787 0 -677 -1 -701 -20
-732 -40 -66 1 -63 -855 -63 -856 0 -815 -3 -855 63 -19 31 -20 55 -20 735 0
776 -3 742 63 782 31 19 56 20 807 20 718 0 778 -1 810 -18z"/>
<path d="M483 1383 c-50 -10 -70 -86 -33 -123 20 -20 33 -20 575 -20 542 0
555 0 575 20 38 38 22 100 -31 119 -31 11 -1033 14 -1086 4z"/>
<path d="M450 1000 c-25 -25 -26 -71 -1 -101 l19 -24 524 -3 c287 -2 538 0
556 3 66 12 95 82 52 125 -20 20 -33 20 -575 20 -542 0 -555 0 -575 -20z"/>
<path d="M450 640 c-25 -25 -26 -71 -1 -101 l19 -24 557 0 557 0 19 24 c25 30
24 76 -1 101 -20 20 -33 20 -575 20 -542 0 -555 0 -575 -20z"/>
<path d="M3715 1408 c-53 -42 -55 -56 -55 -458 0 -402 2 -416 55 -458 37 -29
93 -28 154 2 165 84 631 352 654 377 22 24 27 39 27 79 0 40 -5 55 -27 79 -22
23 -504 300 -670 385 -46 23 -104 21 -138 -6z m381 -300 c151 -84 274 -155
274 -159 0 -6 -542 -309 -553 -309 -4 0 -7 139 -7 310 0 171 3 310 7 310 3 0
129 -69 279 -152z"/>
</g>
</svg>
