<svg width="20" height="15" viewBox="0 0 20 15" fill="none" xmlns="http://www.w3.org/2000/svg">
<path d="M5.78906 1.52349C5.73119 1.40846 5.69764 1.28274 5.6905 1.15417C5.68336 1.0256 5.70278 0.896938 5.74755 0.776205C5.79233 0.655473 5.86149 0.545258 5.95073 0.452432C6.03997 0.359606 6.14738 0.28616 6.26626 0.236672C6.38514 0.187185 6.51294 0.162717 6.64169 0.164795C6.77044 0.166873 6.89738 0.195451 7.0146 0.248748C7.13182 0.302046 7.2368 0.37892 7.323 0.474577C7.4092 0.570234 7.47477 0.682623 7.51562 0.804737L8.11719 2.25005C8.2107 2.48021 8.20984 2.73793 8.11481 2.96747C8.01978 3.197 7.83821 3.37991 7.60938 3.47661C7.49509 3.5225 7.37315 3.54636 7.25 3.54692C7.06447 3.54718 6.88304 3.49239 6.72867 3.38947C6.5743 3.28656 6.45393 3.14016 6.38281 2.9688L5.78906 1.52349ZM1.55469 6.76567L3 7.36724C3.11429 7.41313 3.23622 7.43698 3.35938 7.43755C3.57678 7.43828 3.78768 7.36344 3.95598 7.22582C4.12429 7.0882 4.23953 6.89637 4.28199 6.68315C4.32445 6.46993 4.29149 6.24858 4.18874 6.05699C4.08599 5.86539 3.91985 5.71547 3.71875 5.63286L2.27344 5.03911C2.15841 4.98124 2.03269 4.94769 1.90412 4.94055C1.77555 4.93341 1.64689 4.95283 1.52616 4.9976C1.40542 5.04238 1.29521 5.11154 1.20238 5.20078C1.10956 5.29002 1.03611 5.39743 0.986623 5.51631C0.937135 5.63519 0.912667 5.76299 0.914745 5.89174C0.916823 6.02049 0.945401 6.14743 0.998699 6.26465C1.052 6.38187 1.12887 6.48685 1.22453 6.57305C1.32018 6.65925 1.43257 6.72482 1.55469 6.76567ZM16.6406 7.43755C16.7638 7.43698 16.8857 7.41313 17 7.36724L18.4453 6.76567C18.5674 6.72482 18.6798 6.65925 18.7755 6.57305C18.8711 6.48685 18.948 6.38187 19.0013 6.26465C19.0546 6.14743 19.0832 6.02049 19.0853 5.89174C19.0873 5.76299 19.0629 5.63519 19.0134 5.51631C18.9639 5.39743 18.8904 5.29002 18.7976 5.20078C18.7048 5.11154 18.5946 5.04238 18.4738 4.9976C18.3531 4.95283 18.2245 4.93341 18.0959 4.94055C17.9673 4.94769 17.8416 4.98124 17.7266 5.03911L16.2812 5.63286C16.0801 5.71547 15.914 5.86539 15.8113 6.05699C15.7085 6.24858 15.6756 6.46993 15.718 6.68315C15.7605 6.89637 15.8757 7.0882 16.044 7.22582C16.2123 7.36344 16.4232 7.43828 16.6406 7.43755ZM12.3906 3.47661C12.5049 3.5225 12.6268 3.54636 12.75 3.54692C12.9355 3.54718 13.117 3.49239 13.2713 3.38947C13.4257 3.28656 13.5461 3.14016 13.6172 2.9688L14.2109 1.52349C14.2688 1.40846 14.3024 1.28274 14.3095 1.15417C14.3166 1.0256 14.2972 0.896938 14.2524 0.776205C14.2077 0.655473 14.1385 0.545258 14.0493 0.452432C13.96 0.359606 13.8526 0.28616 13.7337 0.236672C13.6149 0.187185 13.4871 0.162717 13.3583 0.164795C13.2296 0.166873 13.1026 0.195451 12.9854 0.248748C12.8682 0.302046 12.7632 0.37892 12.677 0.474577C12.5908 0.570234 12.5252 0.682623 12.4844 0.804737L11.8828 2.25005C11.7893 2.48021 11.7902 2.73793 11.8852 2.96747C11.9802 3.197 12.1618 3.37991 12.3906 3.47661ZM19.6875 10.5001C19.6875 10.7487 19.5887 10.9871 19.4129 11.163C19.2371 11.3388 18.9986 11.4376 18.75 11.4376H1.25C1.00136 11.4376 0.762903 11.3388 0.587087 11.163C0.411272 10.9871 0.3125 10.7487 0.3125 10.5001C0.3125 10.2514 0.411272 10.013 0.587087 9.83714C0.762903 9.66132 1.00136 9.56255 1.25 9.56255H5C5 8.23647 5.52678 6.9647 6.46447 6.02702C7.40215 5.08933 8.67392 4.56255 10 4.56255C11.3261 4.56255 12.5979 5.08933 13.5355 6.02702C14.4732 6.9647 15 8.23647 15 9.56255H18.75C18.9986 9.56255 19.2371 9.66132 19.4129 9.83714C19.5887 10.013 19.6875 10.2514 19.6875 10.5001ZM6.875 9.56255H13.125C13.125 8.73375 12.7958 7.93889 12.2097 7.35284C11.6237 6.76679 10.8288 6.43755 10 6.43755C9.1712 6.43755 8.37634 6.76679 7.79029 7.35284C7.20424 7.93889 6.875 8.73375 6.875 9.56255ZM16.25 12.6876H3.75C3.50136 12.6876 3.2629 12.7863 3.08709 12.9621C2.91127 13.138 2.8125 13.3764 2.8125 13.6251C2.8125 13.8737 2.91127 14.1121 3.08709 14.288C3.2629 14.4638 3.50136 14.5626 3.75 14.5626H16.25C16.4986 14.5626 16.7371 14.4638 16.9129 14.288C17.0887 14.1121 17.1875 13.8737 17.1875 13.6251C17.1875 13.3764 17.0887 13.138 16.9129 12.9621C16.7371 12.7863 16.4986 12.6876 16.25 12.6876Z" fill="black"/>
</svg>
