<svg width="14" height="14" viewBox="0 0 14 14" fill="none" xmlns="http://www.w3.org/2000/svg">
<path d="M11.9 0.5H2.1C1.54305 0.5 1.0089 0.721249 0.615076 1.11508C0.221249 1.5089 0 2.04305 0 2.6V8.2C0 8.75696 0.221249 9.2911 0.615076 9.68493C1.0089 10.0788 1.54305 10.3 2.1 10.3H6.3V11.7H3.5C3.31435 11.7 3.1363 11.7738 3.00503 11.905C2.87375 12.0363 2.8 12.2143 2.8 12.4C2.8 12.5857 2.87375 12.7637 3.00503 12.895C3.1363 13.0263 3.31435 13.1 3.5 13.1H10.5C10.6857 13.1 10.8637 13.0263 10.995 12.895C11.1263 12.7637 11.2 12.5857 11.2 12.4C11.2 12.2143 11.1263 12.0363 10.995 11.905C10.8637 11.7738 10.6857 11.7 10.5 11.7H7.7V10.3H11.9C12.457 10.3 12.9911 10.0788 13.3849 9.68493C13.7788 9.2911 14 8.75696 14 8.2V2.6C14 2.04305 13.7788 1.5089 13.3849 1.11508C12.9911 0.721249 12.457 0.5 11.9 0.5ZM12.6 8.2C12.6 8.38565 12.5263 8.5637 12.395 8.69497C12.2637 8.82625 12.0857 8.9 11.9 8.9H2.1C1.91435 8.9 1.7363 8.82625 1.60503 8.69497C1.47375 8.5637 1.4 8.38565 1.4 8.2V2.6C1.4 2.41435 1.47375 2.2363 1.60503 2.10503C1.7363 1.97375 1.91435 1.9 2.1 1.9H11.9C12.0857 1.9 12.2637 1.97375 12.395 2.10503C12.5263 2.2363 12.6 2.41435 12.6 2.6V8.2Z" fill="#323232"/>
</svg>
