<svg width="14" height="15" viewBox="0 0 14 15" fill="#7E818A" xmlns="http://www.w3.org/2000/svg">
<path fill-rule="evenodd" clip-rule="evenodd" d="M6.39669 0.250381C6.55661 0.0904329 6.77362 0.000342994 6.99988 0C7.22548 0.00137268 7.44136 0.0919636 7.60051 0.251908C7.75965 0.411742 7.84917 0.628063 7.84951 0.853633L7.85039 8.43721L10.548 6.18973C10.7211 6.03836 10.9479 5.96313 11.1772 5.9812C11.4065 5.99925 11.6187 6.10913 11.7659 6.28576C11.9132 6.46239 11.9828 6.69094 11.9592 6.91971C11.9357 7.14847 11.8208 7.35804 11.6407 7.50095L7.54318 10.9157C7.5003 10.9465 7.45457 10.9733 7.40655 10.9956C7.37592 11.016 7.34402 11.0346 7.31098 11.0508C7.07636 11.1513 6.80746 11.1304 6.59115 10.9949C6.54325 10.9728 6.49752 10.9463 6.45453 10.9157L2.35698 7.50095C2.18285 7.35619 2.07344 7.14812 2.05298 6.92267C2.03251 6.6971 2.10259 6.47277 2.24779 6.29899C2.39252 6.12486 2.6005 6.01544 2.82595 5.99486C3.05141 5.97429 3.27571 6.04414 3.44972 6.18899L6.14719 8.43714L6.1462 0.853569C6.14654 0.627326 6.23663 0.410442 6.39669 0.250381ZM0.75 13C0.335786 13 0 13.3358 0 13.75C0 14.1642 0.335786 14.5 0.75 14.5H13.25C13.6642 14.5 14 14.1642 14 13.75C14 13.3358 13.6642 13 13.25 13H0.75Z"/>
</svg>
