<svg width="16" height="16" viewBox="0 0 16 16" fill="none" xmlns="http://www.w3.org/2000/svg">
<path d="M2.4 12.8046H5.792C5.89728 12.8052 6.00166 12.7851 6.09912 12.7453C6.1966 12.7054 6.28525 12.6468 6.36 12.5726L11.896 7.02864L14.168 4.80464C14.243 4.73027 14.3025 4.64179 14.3431 4.5443C14.3837 4.44681 14.4046 4.34225 14.4046 4.23664C14.4046 4.13103 14.3837 4.02646 14.3431 3.92898C14.3025 3.83149 14.243 3.74301 14.168 3.66864L10.776 0.236639C10.7016 0.161656 10.6131 0.10214 10.5157 0.0615255C10.4182 0.0209106 10.3136 0 10.208 0C10.1024 0 9.99783 0.0209106 9.90034 0.0615255C9.80285 0.10214 9.71437 0.161656 9.64 0.236639L7.384 2.50064L1.832 8.04464C1.75785 8.11939 1.69919 8.20804 1.65938 8.30551C1.61957 8.40298 1.59939 8.50735 1.6 8.61264V12.0046C1.6 12.2168 1.68429 12.4203 1.83431 12.5703C1.98434 12.7204 2.18783 12.8046 2.4 12.8046ZM10.208 1.93264L12.472 4.19664L11.336 5.33264L9.072 3.06864L10.208 1.93264ZM3.2 8.94064L7.944 4.19664L10.208 6.46064L5.464 11.2046H3.2V8.94064ZM15.2 14.4046H0.8C0.587827 14.4046 0.384344 14.4889 0.234315 14.639C0.0842854 14.789 0 14.9925 0 15.2046C0 15.4168 0.0842854 15.6203 0.234315 15.7703C0.384344 15.9204 0.587827 16.0046 0.8 16.0046H15.2C15.4122 16.0046 15.6157 15.9204 15.7657 15.7703C15.9157 15.6203 16 15.4168 16 15.2046C16 14.9925 15.9157 14.789 15.7657 14.639C15.6157 14.4889 15.4122 14.4046 15.2 14.4046Z" fill="#A6AEC7"/>
</svg>
