<svg width="14" height="16" viewBox="0 0 14 16" fill="#A6AEC7" xmlns="http://www.w3.org/2000/svg">
<path d="M3.99451 10.3035L2.3841 8.70014H9.09878C9.28448 8.70014 9.46257 8.62637 9.59388 8.49506C9.72518 8.36375 9.79895 8.18566 9.79895 7.99996C9.79895 7.81427 9.72518 7.63617 9.59388 7.50487C9.46257 7.37356 9.28448 7.29979 9.09878 7.29979L2.3841 7.29979L3.99451 5.69639C4.06013 5.6313 4.11222 5.55386 4.14777 5.46854C4.18331 5.38321 4.20162 5.2917 4.20162 5.19926C4.20162 5.10683 4.18331 5.01532 4.14777 4.92999C4.11222 4.84467 4.06013 4.76723 3.99451 4.70214C3.92942 4.63652 3.85198 4.58442 3.76665 4.54888C3.68133 4.51333 3.58981 4.49503 3.49738 4.49503C3.40495 4.49503 3.31343 4.51333 3.22811 4.54888C3.14279 4.58442 3.06535 4.63652 3.00026 4.70214L0.199559 7.50284C0.135815 7.56943 0.0858469 7.64795 0.0525226 7.7339C-0.0175075 7.90436 -0.0175075 8.09556 0.0525226 8.26603C0.0858469 8.35198 0.135815 8.4305 0.199559 8.49709L3.00026 11.2978C3.06554 11.3631 3.14304 11.4149 3.22834 11.4502C3.31364 11.4855 3.40506 11.5037 3.49738 11.5037C3.58971 11.5037 3.68113 11.4855 3.76642 11.4502C3.85172 11.4149 3.92922 11.3631 3.99451 11.2978C4.05979 11.2325 4.11157 11.155 4.1469 11.0697C4.18224 10.9844 4.20042 10.893 4.20042 10.8007C4.20042 10.7083 4.18224 10.6169 4.1469 10.5316C4.11157 10.4463 4.05979 10.3688 3.99451 10.3035ZM6.99825 1.69839C6.99825 1.88409 7.07202 2.06218 7.20333 2.19349C7.33464 2.3248 7.51273 2.39857 7.69843 2.39857H11.8995C12.0852 2.39857 12.2633 2.47233 12.3946 2.60364C12.5259 2.73495 12.5997 2.91304 12.5997 3.09874V12.9012C12.5997 13.0869 12.5259 13.265 12.3946 13.3963C12.2633 13.5276 12.0852 13.6014 11.8995 13.6014H7.69843C7.51273 13.6014 7.33464 13.6751 7.20333 13.8064C7.07202 13.9377 6.99825 14.1158 6.99825 14.3015C6.99825 14.4872 7.07202 14.6653 7.20333 14.7966C7.33464 14.9279 7.51273 15.0017 7.69843 15.0017H11.8995C12.4566 15.0017 12.9908 14.7804 13.3848 14.3865C13.7787 13.9926 14 13.4583 14 12.9012V3.09874C14 2.54165 13.7787 2.00737 13.3848 1.61345C12.9908 1.21952 12.4566 0.998218 11.8995 0.998218H7.69843C7.51273 0.998218 7.33464 1.07199 7.20333 1.20329C7.07202 1.3346 6.99825 1.51269 6.99825 1.69839Z" />
</svg>
