<svg width="13" height="14" viewBox="0 0 13 14" fill="white" xmlns="http://www.w3.org/2000/svg">
<path fill-rule="evenodd" clip-rule="evenodd" d="M1.25 0C0.559644 0 0 0.559645 0 1.25V12.75C0 13.4404 0.559644 14 1.25 14C1.94036 14 2.5 13.4404 2.5 12.75V1.25C2.5 0.559644 1.94036 0 1.25 0ZM5.3387 7.85206C5.12429 7.62864 5.0028 7.32849 5.0005 7.01502L5.00017 7.01545C4.99476 6.69135 5.11674 6.37892 5.33853 6.14811V6.14794L10.9871 0.355645C11.2841 0.0499223 11.7175 -0.0702787 12.1244 0.0404947C12.531 0.151255 12.8492 0.476163 12.959 0.892661C13.0688 1.30933 12.9536 1.75428 12.6567 2.06017L7.83948 7L12.6567 11.9398C12.9537 12.2457 13.069 12.6907 12.9592 13.1073C12.8493 13.5238 12.5312 13.8487 12.1243 13.9595C11.7177 14.0703 11.2841 13.9501 10.9873 13.6444L5.3387 7.85206Z"/>
</svg>
