<svg width="6" height="12" viewBox="0 0 6 12" fill="none" xmlns="http://www.w3.org/2000/svg">
<path d="M0.000375271 6.01126C0.00209904 6.24636 0.0932145 6.47148 0.254023 6.63904L4.49046 10.9833C4.71307 11.2126 5.03826 11.3027 5.34326 11.2196C5.64837 11.1365 5.887 10.8929 5.96936 10.5805C6.05174 10.268 5.9653 9.9343 5.74256 9.70487L2.12961 6L5.74256 2.29513C5.96518 2.06571 6.05161 1.732 5.96924 1.4195C5.88687 1.10712 5.64823 0.863441 5.34326 0.780371C5.03815 0.697291 4.71309 0.787442 4.49033 1.01673L0.2539 5.36096V5.36108C0.0875535 5.53419 -0.00393343 5.76852 0.0001297 6.01158L0.000375271 6.01126Z" fill="currentColor"/>
</svg>
