<svg width="17" height="19" viewBox="0 0 17 19" fill="none" xmlns="http://www.w3.org/2000/svg">
<path d="M13.7916 3.40837L11.6833 5.02504L12.4416 7.57504L10.2499 6.06671L8.05827 7.57504L8.8166 5.02504L6.70827 3.40837L9.3666 3.33337L10.2499 0.833374L11.1333 3.33337L13.7916 3.40837ZM16.7083 9.16671L15.3416 10.2084L15.8333 11.8584L14.4166 10.8834L12.9999 11.8584L13.4916 10.2084L12.1249 9.16671L13.8416 9.12504L14.4166 7.50004L14.9916 9.12504L16.7083 9.16671ZM14.8083 13.2917C15.4999 13.225 16.2416 14.2084 15.7999 14.8334C15.5333 15.2084 15.2499 15.5584 14.8999 15.8917C11.6416 19.1667 6.3666 19.1667 3.1166 15.8917C-0.141732 12.6417 -0.141732 7.35837 3.1166 4.10837C3.44993 3.77504 3.79993 3.47504 4.17493 3.20837C4.79993 2.76671 5.78327 3.50837 5.7166 4.20004C5.4916 6.58337 6.2916 9.05838 8.12493 10.8834C8.99127 11.7544 10.0402 12.4222 11.1959 12.8387C12.3517 13.2552 13.5855 13.4099 14.8083 13.2917ZM13.4416 14.975C10.9952 14.8344 8.68411 13.8063 6.9416 12.0834C5.13327 10.2584 4.1666 7.91671 4.03327 5.56671C1.6916 8.18337 1.78327 12.2 4.2916 14.7167C6.80827 17.225 10.8249 17.3167 13.4416 14.975Z" fill="black"/>
</svg>
