<svg width="14" height="8" viewBox="0 0 14 8" fill="none" xmlns="http://www.w3.org/2000/svg">
<path fill-rule="evenodd" clip-rule="evenodd" d="M9.91667 1.14286C9.5945 1.14286 9.33333 0.88702 9.33333 0.571429C9.33333 0.255837 9.5945 0 9.91667 0H13.4167C13.7388 0 14 0.255837 14 0.571429V4C14 4.31559 13.7388 4.57143 13.4167 4.57143C13.0945 4.57143 12.8333 4.31559 12.8333 4V1.95098L8.28748 6.40406C8.05967 6.62722 7.69033 6.62722 7.46252 6.40406L4.95833 3.95098L0.995812 7.83263C0.768006 8.05579 0.39866 8.05579 0.170854 7.83263C-0.0569515 7.60948 -0.0569515 7.24767 0.170854 7.02451L4.54585 2.7388C4.77366 2.51564 5.14301 2.51564 5.37081 2.7388L7.875 5.19188L12.0084 1.14286H9.91667Z" fill="currentColor"/>
</svg>
