<svg width="14" height="8" viewBox="0 0 14 8" fill="none" xmlns="http://www.w3.org/2000/svg">
<path fill-rule="evenodd" clip-rule="evenodd" d="M0.170854 0.167368C0.39866 -0.0557892 0.768006 -0.0557892 0.995812 0.167368L4.95833 4.04902L7.46252 1.59594C7.69033 1.37278 8.05967 1.37278 8.28748 1.59594L12.8333 6.04902V4C12.8333 3.68441 13.0945 3.42857 13.4167 3.42857C13.7388 3.42857 14 3.68441 14 4V7.42857C14 7.74416 13.7388 8 13.4167 8H9.91667C9.5945 8 9.33333 7.74416 9.33333 7.42857C9.33333 7.11298 9.5945 6.85714 9.91667 6.85714H12.0084L7.875 2.80812L5.37081 5.2612C5.14301 5.48436 4.77366 5.48436 4.54585 5.2612L0.170854 0.97549C-0.0569515 0.752333 -0.0569515 0.390524 0.170854 0.167368Z" fill="currentColor"/>
</svg>
