<svg width="14" height="12" viewBox="0 0 14 12" fill="currentcolor" xmlns="http://www.w3.org/2000/svg">
<path fill-rule="evenodd" clip-rule="evenodd" d="M8.29344 1.5184C7.53618 1.29936 6.73577 1.27572 5.9669 1.44969C5.19803 1.62366 4.48576 1.98956 3.89655 2.51326C3.30734 3.03695 2.86039 3.70137 2.59742 4.44452C2.48994 4.74823 2.15661 4.90731 1.8529 4.79984C1.54919 4.69237 1.39011 4.35904 1.49758 4.05532C1.8263 3.12639 2.38498 2.29586 3.1215 1.64124C3.85801 0.986624 4.74835 0.529246 5.70943 0.311788C6.67052 0.0943296 7.67103 0.123879 8.61761 0.397678C9.56118 0.670606 10.4205 1.17737 11.1159 1.87091L12.8333 3.48467V1.33326C12.8333 1.01109 13.0945 0.749922 13.4167 0.749922C13.7388 0.749922 14 1.01109 14 1.33326V4.83326C14 5.15542 13.7388 5.41659 13.4167 5.41659H9.91667C9.5945 5.41659 9.33333 5.15542 9.33333 4.83326C9.33333 4.51109 9.5945 4.24992 9.91667 4.24992H11.944L10.3105 2.71503C10.3061 2.71085 10.3017 2.70661 10.2974 2.7023C9.74014 2.14474 9.0507 1.73744 8.29344 1.5184ZM0 7.16659C0 6.84442 0.261167 6.58325 0.583333 6.58325H4.08333C4.4055 6.58325 4.66667 6.84442 4.66667 7.16659C4.66667 7.48875 4.4055 7.74992 4.08333 7.74992H2.05599L3.68945 9.28482C3.6939 9.28899 3.69827 9.29323 3.70258 9.29755C4.25986 9.8551 4.94929 10.2624 5.70656 10.4814C6.46382 10.7005 7.26423 10.7241 8.0331 10.5502C8.80197 10.3762 9.51424 10.0103 10.1035 9.48659C10.6927 8.96289 11.1396 8.29847 11.4026 7.55532C11.5101 7.25161 11.8434 7.09253 12.1471 7.2C12.4508 7.30748 12.6099 7.64081 12.5024 7.94452C12.1737 8.87346 11.615 9.70398 10.8785 10.3586C10.142 11.0132 9.25165 11.4706 8.29056 11.6881C7.32948 11.9055 6.32897 11.876 5.38239 11.6022C4.43881 11.3292 3.57949 10.8225 2.88406 10.1289L1.16667 8.51517V10.6666C1.16667 10.9888 0.905499 11.2499 0.583333 11.2499C0.261167 11.2499 0 10.9888 0 10.6666V7.16659Z"/>
</svg>
