<?xml version="1.0" standalone="no"?>
<!DOCTYPE svg PUBLIC "-//W3C//DTD SVG 20010904//EN"
 "http://www.w3.org/TR/2001/REC-SVG-20010904/DTD/svg10.dtd">
<svg version="1.0" xmlns="http://www.w3.org/2000/svg"
 width="512.000000pt" height="512.000000pt" viewBox="0 0 512.000000 512.000000"
 preserveAspectRatio="xMidYMid meet">

<g transform="translate(0.000000,512.000000) scale(0.100000,-0.100000)">
<path d="M605 5031 c-16 -10 -141 -131 -277 -267 -211 -214 -247 -254 -253
-287 -14 -75 51 -157 126 -157 58 0 82 16 204 139 60 61 113 111 117 111 5 0
8 -888 8 -1972 0 -1939 0 -1974 20 -2005 41 -68 -128 -63 2056 -63 l1977 0
-126 -128 c-131 -135 -149 -164 -133 -229 9 -34 65 -90 99 -99 72 -18 87 -7
349 254 136 135 255 261 264 280 11 23 14 49 11 75 -5 37 -27 62 -264 299
-267 267 -291 286 -352 271 -84 -20 -136 -116 -100 -186 6 -12 66 -77 132
-144 l122 -123 -1893 0 -1892 0 0 1885 c0 1037 3 1885 8 1885 4 0 57 -50 117
-111 122 -123 146 -139 204 -139 75 0 140 82 126 157 -6 33 -42 74 -258 292
-139 139 -266 259 -284 267 -44 19 -72 18 -108 -5z"/>
<path d="M3870 4431 c-370 -49 -353 -45 -389 -87 -58 -66 -33 -177 46 -211 34
-14 51 -13 226 11 104 15 191 25 193 24 5 -6 -110 -153 -203 -260 -550 -633
-1351 -1047 -2213 -1144 -69 -8 -165 -14 -213 -14 -96 0 -131 -12 -166 -56
-11 -14 -23 -41 -27 -59 -8 -46 25 -119 68 -146 31 -19 42 -20 183 -15 535 20
1129 191 1619 465 157 88 353 220 501 337 144 115 426 397 549 552 54 68 100
122 101 120 2 -2 13 -70 25 -153 12 -86 29 -163 39 -180 25 -44 75 -67 135
-62 42 4 55 10 83 41 28 30 33 43 33 83 0 73 -88 691 -102 721 -7 14 -28 37
-47 49 -46 31 -92 29 -441 -16z"/>
<path d="M3800 3033 c-23 -9 -60 -45 -76 -75 -12 -23 -14 -163 -14 -855 0
-769 1 -830 18 -862 50 -100 181 -105 237 -10 20 33 20 52 20 869 0 785 -1
837 -18 868 -31 57 -108 87 -167 65z"/>
<path d="M3050 2547 c-13 -7 -35 -28 -47 -46 l-23 -34 0 -604 c0 -682 -4 -645
78 -684 50 -24 95 -20 136 12 58 45 56 26 56 676 0 575 -1 599 -20 630 -34 57
-119 81 -180 50z"/>
<path d="M2344 2239 c-44 -13 -81 -51 -94 -98 -7 -28 -10 -175 -8 -459 3 -396
4 -419 23 -451 56 -95 187 -90 237 10 16 31 18 74 18 462 0 466 -1 475 -56
514 -36 25 -80 33 -120 22z"/>
<path d="M1572 1930 c-59 -36 -62 -57 -62 -377 0 -268 1 -290 20 -320 56 -92
181 -94 235 -2 18 31 20 55 23 284 5 321 1 348 -48 397 -33 34 -43 38 -86 38
-31 0 -61 -7 -82 -20z"/>
</g>
</svg>
