<?xml version="1.0" standalone="no"?>
<!DOCTYPE svg PUBLIC "-//W3C//DTD SVG 20010904//EN"
 "http://www.w3.org/TR/2001/REC-SVG-20010904/DTD/svg10.dtd">
<svg version="1.0" xmlns="http://www.w3.org/2000/svg"
 width="681.000000pt" height="881.000000pt" viewBox="0 0 681.000000 881.000000"
 preserveAspectRatio="xMidYMid meet">

<g transform="translate(0.000000,881.000000) scale(0.100000,-0.100000)">
<path d="M3079 8790 c-560 -42 -1076 -195 -1353 -402 -119 -89 -148 -200 -77
-301 36 -51 811 -824 861 -858 52 -35 150 -34 203 3 66 45 92 93 92 168 0 52
-5 72 -24 100 -13 19 -165 177 -338 350 l-313 316 107 42 c323 127 719 192
1173 192 453 0 839 -63 1172 -191 l110 -42 -315 -316 c-173 -174 -325 -332
-338 -351 -35 -52 -34 -150 3 -203 45 -66 93 -92 168 -92 57 0 71 4 110 32 25
17 230 217 456 445 444 446 441 442 432 539 -10 101 -100 180 -333 295 -262
128 -588 215 -975 259 -159 19 -652 27 -821 15z"/>
<path d="M3200 6986 c-241 -35 -589 -146 -704 -225 -65 -45 -475 -477 -722
-761 -904 -1040 -1484 -1982 -1679 -2724 -95 -360 -108 -673 -44 -1046 81
-476 314 -926 659 -1270 523 -524 1258 -837 2195 -936 239 -26 771 -26 1010 0
937 99 1672 412 2195 936 345 344 578 794 659 1270 61 358 51 631 -35 924
-175 599 -682 1452 -1478 2486 -366 476 -855 1063 -934 1121 -86 63 -400 170
-616 210 -144 26 -378 33 -506 15z m386 -401 c120 -18 276 -60 408 -111 l94
-36 129 -151 c631 -739 1239 -1555 1610 -2162 327 -535 530 -998 573 -1310 31
-222 -20 -593 -117 -855 -231 -620 -753 -1091 -1495 -1345 -587 -202 -1305
-264 -1998 -174 -1034 134 -1812 608 -2166 1319 -130 262 -198 534 -211 840
-19 462 152 970 555 1650 353 595 997 1408 1602 2023 l165 167 107 40 c283
106 516 139 744 105z"/>
<path d="M3355 5393 c-35 -10 -86 -50 -113 -90 -27 -38 -27 -38 -32 -277 l-5
-240 -69 -13 c-330 -60 -594 -272 -681 -545 -113 -357 -2 -670 291 -820 175
-90 354 -127 604 -128 421 -1 609 -98 651 -335 24 -139 -7 -246 -100 -343
-137 -143 -327 -210 -561 -199 -269 13 -458 88 -557 218 -86 114 -222 130
-313 39 -95 -95 -73 -224 62 -360 140 -142 351 -239 605 -280 l72 -12 3 -236
3 -237 27 -38 c45 -66 93 -92 168 -92 75 0 123 26 168 92 l27 38 3 242 3 242
32 6 c246 49 504 214 630 404 59 88 80 131 108 221 33 103 33 314 0 435 -85
320 -311 499 -716 570 -49 9 -184 20 -300 24 -235 10 -329 27 -418 74 -105 55
-145 131 -134 254 17 181 138 305 355 365 112 31 371 31 487 0 122 -33 214
-83 290 -157 75 -72 114 -89 191 -83 127 11 210 153 159 273 -8 20 -38 60 -67
91 -124 132 -314 231 -523 273 l-90 18 -5 239 c-5 239 -5 239 -32 277 -39 57
-90 88 -151 92 -29 2 -61 1 -72 -2z"/>
</g>
</svg>
