<svg width="15" height="14" viewBox="0 0 15 14" fill="none" xmlns="http://www.w3.org/2000/svg">
<path d="M6.66667 7.66667H2.66667C2.48986 7.66667 2.32029 7.73691 2.19526 7.86193C2.07024 7.98695 2 8.15652 2 8.33333V12.3333C2 12.5101 2.07024 12.6797 2.19526 12.8047C2.32029 12.9298 2.48986 13 2.66667 13H6.66667C6.84348 13 7.01305 12.9298 7.13807 12.8047C7.2631 12.6797 7.33333 12.5101 7.33333 12.3333V8.33333C7.33333 8.15652 7.2631 7.98695 7.13807 7.86193C7.01305 7.73691 6.84348 7.66667 6.66667 7.66667ZM6 11.6667H3.33333V9H6V11.6667ZM13.3333 1H9.33333C9.15652 1 8.98695 1.07024 8.86193 1.19526C8.73691 1.32029 8.66667 1.48986 8.66667 1.66667V5.66667C8.66667 5.84348 8.73691 6.01305 8.86193 6.13807C8.98695 6.2631 9.15652 6.33333 9.33333 6.33333H13.3333C13.5101 6.33333 13.6797 6.2631 13.8047 6.13807C13.9298 6.01305 14 5.84348 14 5.66667V1.66667C14 1.48986 13.9298 1.32029 13.8047 1.19526C13.6797 1.07024 13.5101 1 13.3333 1ZM12.6667 5H10V2.33333H12.6667V5ZM13.3333 9.66667H12V8.33333C12 8.15652 11.9298 7.98695 11.8047 7.86193C11.6797 7.73691 11.5101 7.66667 11.3333 7.66667C11.1565 7.66667 10.987 7.73691 10.8619 7.86193C10.7369 7.98695 10.6667 8.15652 10.6667 8.33333V9.66667H9.33333C9.15652 9.66667 8.98695 9.7369 8.86193 9.86193C8.73691 9.98695 8.66667 10.1565 8.66667 10.3333C8.66667 10.5101 8.73691 10.6797 8.86193 10.8047C8.98695 10.9298 9.15652 11 9.33333 11H10.6667V12.3333C10.6667 12.5101 10.7369 12.6797 10.8619 12.8047C10.987 12.9298 11.1565 13 11.3333 13C11.5101 13 11.6797 12.9298 11.8047 12.8047C11.9298 12.6797 12 12.5101 12 12.3333V11H13.3333C13.5101 11 13.6797 10.9298 13.8047 10.8047C13.9298 10.6797 14 10.5101 14 10.3333C14 10.1565 13.9298 9.98695 13.8047 9.86193C13.6797 9.7369 13.5101 9.66667 13.3333 9.66667ZM6.66667 1H2.66667C2.48986 1 2.32029 1.07024 2.19526 1.19526C2.07024 1.32029 2 1.48986 2 1.66667V5.66667C2 5.84348 2.07024 6.01305 2.19526 6.13807C2.32029 6.2631 2.48986 6.33333 2.66667 6.33333H6.66667C6.84348 6.33333 7.01305 6.2631 7.13807 6.13807C7.2631 6.01305 7.33333 5.84348 7.33333 5.66667V1.66667C7.33333 1.48986 7.2631 1.32029 7.13807 1.19526C7.01305 1.07024 6.84348 1 6.66667 1ZM6 5H3.33333V2.33333H6V5Z" fill="#323232"/>
</svg>
