<svg width="14" height="14" viewBox="0 0 14 14" fill="none" xmlns="http://www.w3.org/2000/svg">
<path d="M7 0C5.63975 0.00258219 4.30961 0.400331 3.17159 1.1448C2.03357 1.88927 1.13679 2.94833 0.590485 4.19297C0.0441786 5.43762 -0.128076 6.81414 0.0947024 8.15486C0.317481 9.49558 0.925677 10.7426 1.84521 11.7441C2.50195 12.4554 3.29903 13.0231 4.18621 13.4113C5.07339 13.7996 6.03145 14 7 14C7.96855 14 8.92661 13.7996 9.81379 13.4113C10.701 13.0231 11.498 12.4554 12.1548 11.7441C13.0743 10.7426 13.6825 9.49558 13.9053 8.15486C14.1281 6.81414 13.9558 5.43762 13.4095 4.19297C12.8632 2.94833 11.9664 1.88927 10.8284 1.1448C9.69039 0.400331 8.36025 0.00258219 7 0ZM7 12.613C5.54717 12.6108 4.15183 12.0456 3.10761 11.0364C3.42464 10.2653 3.96396 9.60574 4.65703 9.14157C5.3501 8.6774 6.16563 8.42957 7 8.42957C7.83437 8.42957 8.6499 8.6774 9.34297 9.14157C10.036 9.60574 10.5754 10.2653 10.8924 11.0364C9.84817 12.0456 8.45283 12.6108 7 12.613ZM5.59734 5.60579C5.59734 5.32861 5.6796 5.05766 5.83373 4.82719C5.98785 4.59672 6.20692 4.4171 6.46322 4.31102C6.71953 4.20495 7.00156 4.1772 7.27365 4.23127C7.54574 4.28535 7.79567 4.41882 7.99183 4.61482C8.188 4.81082 8.32159 5.06053 8.37571 5.33239C8.42984 5.60424 8.40206 5.88602 8.29589 6.1421C8.18973 6.39819 8.00995 6.61706 7.77928 6.77106C7.54861 6.92505 7.27742 7.00724 7 7.00724C6.62799 7.00724 6.27122 6.85959 6.00817 6.59677C5.74512 6.33394 5.59734 5.97748 5.59734 5.60579ZM11.8462 9.81014C11.2196 8.73926 10.2552 7.90629 9.104 7.44169C9.46109 7.03713 9.69377 6.53822 9.7741 6.00481C9.85443 5.47141 9.77901 4.92617 9.55688 4.43453C9.33476 3.94289 8.97536 3.52574 8.52183 3.23312C8.06829 2.9405 7.53988 2.78485 7 2.78485C6.46012 2.78485 5.93171 2.9405 5.47817 3.23312C5.02464 3.52574 4.66524 3.94289 4.44312 4.43453C4.22099 4.92617 4.14557 5.47141 4.2259 6.00481C4.30623 6.53822 4.53891 7.03713 4.896 7.44169C3.74484 7.90629 2.78041 8.73926 2.1538 9.81014C1.65441 8.96023 1.39055 7.99279 1.38934 7.00724C1.38934 5.52049 1.98046 4.09464 3.03267 3.04335C4.08487 1.99206 5.51196 1.40145 7 1.40145C8.48804 1.40145 9.91513 1.99206 10.9673 3.04335C12.0195 4.09464 12.6107 5.52049 12.6107 7.00724C12.6095 7.99279 12.3456 8.96023 11.8462 9.81014Z" fill="#323232"/>
</svg>
