<svg width="14" height="14" viewBox="0 0 14 14" fill="#939A9E" xmlns="http://www.w3.org/2000/svg">
<path d="M5.59995 11.2C5.7856 11.2 5.96365 11.1263 6.09493 10.995C6.2262 10.8637 6.29995 10.6857 6.29995 10.5V6.3C6.29995 6.11435 6.2262 5.9363 6.09493 5.80503C5.96365 5.67375 5.7856 5.6 5.59995 5.6C5.4143 5.6 5.23625 5.67375 5.10498 5.80503C4.9737 5.9363 4.89995 6.11435 4.89995 6.3V10.5C4.89995 10.6857 4.9737 10.8637 5.10498 10.995C5.23625 11.1263 5.4143 11.2 5.59995 11.2ZM12.6 2.8H9.79995V2.1C9.79995 1.54305 9.5787 1.0089 9.18488 0.615076C8.79105 0.221249 8.25691 0 7.69995 0H6.29995C5.743 0 5.20885 0.221249 4.81503 0.615076C4.4212 1.0089 4.19995 1.54305 4.19995 2.1V2.8H1.39995C1.2143 2.8 1.03625 2.87375 0.904976 3.00503C0.773701 3.1363 0.699951 3.31435 0.699951 3.5C0.699951 3.68565 0.773701 3.8637 0.904976 3.99497C1.03625 4.12625 1.2143 4.2 1.39995 4.2H2.09995V11.9C2.09995 12.457 2.3212 12.9911 2.71503 13.3849C3.10885 13.7788 3.643 14 4.19995 14H9.79995C10.3569 14 10.8911 13.7788 11.2849 13.3849C11.6787 12.9911 11.9 12.457 11.9 11.9V4.2H12.6C12.7856 4.2 12.9637 4.12625 13.0949 3.99497C13.2262 3.8637 13.3 3.68565 13.3 3.5C13.3 3.31435 13.2262 3.1363 13.0949 3.00503C12.9637 2.87375 12.7856 2.8 12.6 2.8ZM5.59995 2.1C5.59995 1.91435 5.6737 1.7363 5.80498 1.60503C5.93625 1.47375 6.1143 1.4 6.29995 1.4H7.69995C7.8856 1.4 8.06365 1.47375 8.19493 1.60503C8.3262 1.7363 8.39995 1.91435 8.39995 2.1V2.8H5.59995V2.1ZM10.5 11.9C10.5 12.0857 10.4262 12.2637 10.2949 12.395C10.1637 12.5263 9.9856 12.6 9.79995 12.6H4.19995C4.0143 12.6 3.83625 12.5263 3.70498 12.395C3.5737 12.2637 3.49995 12.0857 3.49995 11.9V4.2H10.5V11.9ZM8.39995 11.2C8.5856 11.2 8.76365 11.1263 8.89493 10.995C9.0262 10.8637 9.09995 10.6857 9.09995 10.5V6.3C9.09995 6.11435 9.0262 5.9363 8.89493 5.80503C8.76365 5.67375 8.5856 5.6 8.39995 5.6C8.2143 5.6 8.03625 5.67375 7.90498 5.80503C7.7737 5.9363 7.69995 6.11435 7.69995 6.3V10.5C7.69995 10.6857 7.7737 10.8637 7.90498 10.995C8.03625 11.1263 8.2143 11.2 8.39995 11.2Z"/>
</svg>
