<svg width="14" height="14" viewBox="0 0 14 14" fill="#7367F0" xmlns="http://www.w3.org/2000/svg">
    <path d="M9.86134 7.48815C10.7333 6.7112 11.2504 5.61421 11.2938 4.44952C11.3372 3.28486 10.9031 2.15259 10.0914 1.31329C9.27974 0.474154 8.16033 0 6.99051 0C5.82069 0 4.70128 0.474197 3.88959 1.31329C3.0779 2.15259 2.64385 3.28482 2.68722 4.44952C2.7306 5.61417 3.24775 6.7112 4.11968 7.48815C2.91701 7.90779 1.87484 8.6889 1.13692 9.72386C0.399011 10.7587 0.00183699 11.9964 0 13.2659C0 13.5281 0.140513 13.7705 0.368466 13.9017C0.596419 14.0328 0.877269 14.0328 1.10523 13.9017C1.33335 13.7706 1.47369 13.5282 1.47369 13.2659C1.47503 12.0298 1.96848 10.8446 2.84575 9.9706C3.72302 9.09657 4.91254 8.60492 6.1531 8.6036H7.84689C9.08763 8.60493 10.2771 9.09657 11.1544 9.9706C12.0317 10.8446 12.5251 12.0298 12.5265 13.2659C12.5265 13.5281 12.6668 13.7705 12.8948 13.9017C13.1227 14.0328 13.4037 14.0328 13.6317 13.9017C13.8597 13.7706 14 13.5282 14 13.2659C13.997 11.994 13.597 10.7547 12.8554 9.71956C12.1138 8.68443 11.0674 7.90446 9.86126 7.48815H9.86134ZM6.99055 1.50546C7.738 1.50546 8.45472 1.80124 8.98326 2.32778C9.51193 2.85433 9.80879 3.56858 9.80879 4.31327C9.80879 5.05796 9.51192 5.77204 8.98326 6.29863C8.45476 6.82518 7.73804 7.12095 6.99055 7.12095C6.24307 7.12095 5.52639 6.82517 4.99785 6.29863C4.46918 5.77208 4.17231 5.058 4.17231 4.31327C4.17231 3.56854 4.46919 2.85433 4.99785 2.32778C5.52635 1.80123 6.24307 1.50546 6.99055 1.50546Z" />
</svg>
